<?xml version="1.0" standalone="no"?>
<!DOCTYPE svg PUBLIC "-//W3C//DTD SVG 1.1//EN" "http://www.w3.org/Graphics/SVG/1.1/DTD/svg11.dtd" >
<svg xmlns="http://www.w3.org/2000/svg">
<metadata>Generated by IcoMoon</metadata>
<defs>
<font id="icons-font" horiz-adv-x="1024">
<font-face units-per-em="1024" ascent="960" descent="-64" />
<missing-glyph horiz-adv-x="1024" />
<glyph unicode="&#x20;" horiz-adv-x="512" d="" />
<glyph unicode="&#xe900;" glyph-name="alert-info" d="M448 656c0 26.368 21.632 48 48 48h32c26.368 0 48-21.632 48-48v-32c0-26.368-21.632-48-48-48h-32c-26.368 0-48 21.632-48 48v32zM640 192h-256v64h64v192h-64v64h192v-256h64zM512 960c-282.752 0-512-229.248-512-512s229.248-512 512-512 512 229.248 512 512-229.248 512-512 512zM512 32c-229.76 0-416 186.24-416 416s186.24 416 416 416 416-186.24 416-416-186.24-416-416-416z" />
<glyph unicode="&#xe901;" glyph-name="alert-question" d="M448 256h128v-128h-128zM704 704c35.328 0 64-28.672 64-64v-192l-192-128h-128v64l192 128v64h-320v128h384zM512 864c-111.104 0-215.616-43.264-294.144-121.856s-121.856-183.040-121.856-294.144c0-111.104 43.264-215.616 121.856-294.144s183.040-121.856 294.144-121.856c111.104 0 215.616 43.264 294.144 121.856s121.856 183.040 121.856 294.144c0 111.104-43.264 215.616-121.856 294.144s-183.040 121.856-294.144 121.856zM512 960v0c282.752 0 512-229.248 512-512s-229.248-512-512-512c-282.752 0-512 229.248-512 512s229.248 512 512 512z" />
<glyph unicode="&#xe902;" glyph-name="alert-warning-circle-punched" d="M512 864c-111.104 0-215.616-43.264-294.144-121.856s-121.856-183.040-121.856-294.144c0-111.104 43.264-215.616 121.856-294.144s183.040-121.856 294.144-121.856c111.104 0 215.616 43.264 294.144 121.856s121.856 183.040 121.856 294.144c0 111.104-43.264 215.616-121.856 294.144s-183.040 121.856-294.144 121.856zM512 960v0c282.752 0 512-229.248 512-512s-229.248-512-512-512c-282.752 0-512 229.248-512 512s229.248 512 512 512zM448 256h128v-128h-128zM448 768h128v-384h-128z" />
<glyph unicode="&#xe903;" glyph-name="alert-warning-circle" d="M512-64c-282.752 0-512 229.248-512 512s229.248 512 512 512c282.752 0 512-229.248 512-512s-229.248-512-512-512zM509.984 129.952c65.216 0 106.336 39.776 106.336 87.040 0 48.224-42.88 89.664-106.336 89.664-64.384 0-101.92-47.36-101.92-89.664 0-43.904 43.776-87.040 101.92-87.040zM597.568 753.568h-170.784c-14.272 0-26.688-9.824-25.856-21.888 6.048-88.896 53.344-333.888 61.6-353.216 4.896-11.392 20.928-20.384 35.2-20.384h29.792c14.272 0 29.376 9.344 33.76 20.832 8.384 22.208 53.344 260.224 62.112 352.8 1.152 12.032-11.584 21.888-25.856 21.888z" />
<glyph unicode="&#xe904;" glyph-name="alert-warning-triangle" d="M512 867.2l429.12-855.232h-858.176l429.12 855.232zM512 960c-22.080 0-44.16-14.912-60.864-44.672l-437.056-871.104c-33.472-59.52-4.992-108.224 63.296-108.224h869.312c68.288 0 96.768 48.704 63.296 108.224v0l-437.056 871.104c-16.768 29.76-38.784 44.672-60.864 44.672v0zM576 128c0-35.328-28.672-64-64-64s-64 28.672-64 64c0 35.328 28.672 64 64 64s64-28.672 64-64zM512 256c-35.328 0-64 28.672-64 64v192c0 35.328 28.672 64 64 64s64-28.672 64-64v-192c0-35.328-28.672-64-64-64z" />
<glyph unicode="&#xe905;" glyph-name="arrow1-down" d="M877.248 338.752l-320-320c-24.992-24.992-65.504-24.992-90.496 0l-320 320c-24.992 24.992-24.992 65.504 0 90.496s65.504 24.992 90.496 0l210.752-210.752v613.504c0 35.36 28.64 64 64 64s64-28.64 64-64v-613.504l210.752 210.752c12.48 12.48 28.864 18.752 45.248 18.752s32.768-6.24 45.248-18.752c24.992-24.992 24.992-65.504 0-90.496z" />
<glyph unicode="&#xe906;" glyph-name="arrow1-left" d="M402.752 82.752l-320 320c-25.024 24.96-25.024 65.536 0 90.496l320 320c25.024 25.024 65.536 25.024 90.496 0s25.024-65.536 0-90.496l-210.752-210.752h613.504c35.328 0 64-28.672 64-64s-28.672-64-64-64h-613.504l210.752-210.752c12.48-12.48 18.752-28.864 18.752-45.248s-6.272-32.768-18.752-45.248c-25.024-25.024-65.536-25.024-90.496 0z" />
<glyph unicode="&#xe907;" glyph-name="arrow1-right" d="M621.248 813.248l320-320c24.992-24.992 24.992-65.504 0-90.496l-320-320c-24.992-24.992-65.504-24.992-90.496 0s-24.992 65.504 0 90.496l210.752 210.752h-613.504c-35.36 0-64 28.64-64 64s28.64 64 64 64h613.504l-210.752 210.752c-12.48 12.48-18.752 28.864-18.752 45.248s6.24 32.768 18.752 45.248c24.992 24.992 65.504 24.992 90.496 0z" />
<glyph unicode="&#xe908;" glyph-name="arrow1-up" d="M877.248 557.248l-320 320c-24.96 25.024-65.536 25.024-90.496 0l-320-320c-25.024-25.024-25.024-65.536 0-90.496s65.536-25.024 90.496 0l210.752 210.752v-613.504c0-35.328 28.672-64 64-64s64 28.672 64 64v613.504l210.752-210.752c12.48-12.48 28.864-18.752 45.248-18.752s32.768 6.272 45.248 18.752c25.024 25.024 25.024 65.536 0 90.496z" />
<glyph unicode="&#xe909;" glyph-name="arrow2-down" d="M512-32l480 480h-288v512h-384v-512h-288z" />
<glyph unicode="&#xe90a;" glyph-name="arrow2-left" d="M32 448l480-480v288h512v384h-512v288z" />
<glyph unicode="&#xe90b;" glyph-name="arrow2-right" d="M992 448l-480 480v-288h-512v-384h512v-288z" />
<glyph unicode="&#xe90c;" glyph-name="arrow2-up" d="M512 928l-480-480h288v-512h384v512h288z" />
<glyph unicode="&#xe90d;" glyph-name="arrow3-down-circle-punched" d="M1024 448c0 283.808-231.136 512-512 512s-512-228.192-512-512c0-280.864 231.136-512 512-512s512 231.136 512 512zM29.248 448c0 266.24 216.512 482.752 482.752 482.752s482.752-216.512 482.752-482.752c0-266.24-216.512-482.752-482.752-482.752s-482.752 216.512-482.752 482.752zM728.512 412.896l-38.048 38.048-149.216-152.128v392.032h-52.672v-392.032l-149.216 152.128-38.048-38.048 187.232-187.232h52.672z" />
<glyph unicode="&#xe90e;" glyph-name="arrow3-left-circle-punched" d="M512 960c283.808 0 512-231.136 512-512s-228.192-512-512-512c-280.864 0-512 231.136-512 512s231.136 512 512 512zM512-34.752c266.24 0 482.752 216.512 482.752 482.752s-216.512 482.752-482.752 482.752c-266.24 0-482.752-216.512-482.752-482.752s216.512-482.752 482.752-482.752zM476.896 664.512l38.048-38.048-152.128-149.216h392.032v-52.672h-392.032l152.128-149.216-38.048-38.048-187.232 187.232v52.672z" />
<glyph unicode="&#xe90f;" glyph-name="arrow3-right-circle-punched" d="M512 960c-283.808 0-512-231.136-512-512s228.192-512 512-512c280.864 0 512 231.136 512 512s-231.136 512-512 512zM512-34.752c-266.24 0-482.752 216.512-482.752 482.752s216.512 482.752 482.752 482.752c266.24 0 482.752-216.512 482.752-482.752s-216.512-482.752-482.752-482.752zM547.104 664.512l-38.048-38.048 152.128-149.216h-392.032v-52.672h392.032l-152.128-149.216 38.048-38.048 187.232 187.232v52.672z" />
<glyph unicode="&#xe910;" glyph-name="arrow3-up-circle-punched" d="M1024 448c0-283.808-231.136-512-512-512s-512 228.192-512 512c0 280.864 231.136 512 512 512s512-231.136 512-512zM29.248 448c0-266.24 216.512-482.752 482.752-482.752s482.752 216.512 482.752 482.752c0 266.24-216.512 482.752-482.752 482.752s-482.752-216.512-482.752-482.752zM728.512 483.104l-38.048-38.048-149.216 152.128v-392.032h-52.672v392.032l-149.216-152.128-38.048 38.048 187.232 187.232h52.672z" />
<glyph unicode="&#xe911;" glyph-name="back" d="M761.856-64c113.728 206.016 132.864 520.32-313.856 509.824v-253.824l-384 384 384 384v-248.384c534.976 13.952 594.56-472.192 313.856-775.616z" />
<glyph unicode="&#xe912;" glyph-name="basket1" d="M194.464 661.344l200.576 200.608c8.48 8.448 19.616 12.704 30.752 12.704 26.144 0 43.52-21.536 43.52-43.904 0-10.656-3.936-21.504-12.768-30.336l-139.104-139.104h-123.008zM706.528 661.344h123.008l-200.576 200.608c-8.48 8.448-19.616 12.704-30.752 12.704-26.144 0-43.52-21.536-43.52-43.904 0-10.656 3.936-21.504 12.768-30.336l139.104-139.104zM0 576v-85.344h27.424c22.784 0 43.552-12.96 53.6-33.44l174.976-435.872h512l175.008 435.808c9.952 20.512 30.816 33.536 53.6 33.536h27.392v85.344h-1024z" />
<glyph unicode="&#xe913;" glyph-name="basket2" d="M194.464 661.344l200.576 200.608c8.48 8.448 19.616 12.704 30.752 12.704 26.144 0 43.52-21.536 43.52-43.904 0-10.656-3.936-21.504-12.768-30.336l-139.104-139.104h-123.008zM706.528 661.344h123.008l-200.576 200.608c-8.48 8.448-19.616 12.704-30.752 12.704-26.144 0-43.52-21.536-43.52-43.904 0-10.656 3.936-21.504 12.768-30.336l139.104-139.104zM864.512 490.656l-0.672-1.76-153.504-382.24h-396.64l-154.144 384h704.992zM1024 576h-1024v-85.344h27.424c22.784 0 43.552-12.96 53.6-33.44l174.976-435.872h512l175.008 435.808c9.952 20.512 30.816 33.536 53.6 33.536h27.392v85.344z" />
<glyph unicode="&#xe914;" glyph-name="cart1" d="M140.288 293.088c-10.208 0-18.176 3.392-23.872 8.736-4.8 4.032-8.64 9.632-10.784 17.152-30.72 107.040-61.408 214.080-92.096 321.088-3.712 12.896-0.288 23.552 6.592 31.136 5.728 7.968 15.104 13.536 28.064 13.536 234.080 0 468.16 0 702.208 0 17.952 63.2 35.904 126.4 53.856 189.6 2.368 8.384 6.848 14.432 12.384 18.496 5.568 4.544 12.992 7.424 22.272 7.424 50.432 0 100.864 0 151.296 0 46.368 0 46.368-70.528 0-70.528-41.312 0-82.688 0-124 0-59.68-210.144-119.36-420.256-179.040-630.4 39.488-16.672 67.232-55.232 67.232-100.032 0-60.032-49.792-108.832-110.976-108.832s-110.976 48.832-110.976 108.832c0 13.568 2.656 26.464 7.296 38.464-74.496 0-148.992 0-223.488 0 4.64-12 7.296-24.896 7.296-38.464 0-60.032-49.792-108.832-110.976-108.832s-110.976 48.832-110.976 108.832c0 58.752 47.712 106.656 107.104 108.672 1.6 0.224 3.232 0.32 4.928 0.32 133.824 0 267.616 0 401.44 0 8.032 28.288 16.096 56.576 24.096 84.832-166.272 0-332.576 0-498.88 0zM684.768 453.6c-24.96 0-49.92 0-74.912 0-4.256-29.984-8.448-60-12.704-89.984 20.704 0 41.376 0 62.048 0 8.512 29.984 17.056 60 25.568 89.984zM95.648 614.144c8.608-30.016 17.216-60.032 25.824-90.016 28.064 0 56.096 0 84.192 0-4.256 29.984-8.48 60-12.704 90.016-32.448 0-64.832 0-97.28 0zM167.52 363.616c20.256 0 40.512 0 60.768 0-4.256 29.984-8.448 60-12.704 89.984-24.64 0-49.248 0-73.888 0 8.608-29.984 17.216-60 25.824-89.984zM376.768 363.616c0 29.984 0 60 0 89.984-29.76 0-59.488 0-89.216 0 4.256-29.984 8.448-60 12.704-89.984 25.504 0 50.976 0 76.512 0zM277.632 524.128c33.024 0 66.080 0 99.136 0 0 29.984 0 60 0 90.016-37.28 0-74.56 0-111.872 0 4.256-30.016 8.448-60.032 12.704-90.016zM448.672 524.128c33.056 0 66.112 0 99.136 0 4.256 29.984 8.448 60 12.704 90.016-37.28 0-74.56 0-111.872 0 0-30.016 0-60.032 0-90.016zM448.672 453.6c0-29.984 0-60 0-89.984 25.504 0 50.976 0 76.512 0 4.256 29.984 8.448 60 12.704 89.984-29.728 0-59.456 0-89.216 0zM632.512 614.144c-4.256-30.016-8.448-60.032-12.704-90.016 28.352 0 56.672 0 84.992 0 8.512 29.984 17.056 60 25.568 90.016-32.608 0-65.248 0-97.856 0zM643.424 60.928c21.536 0 39.072 17.184 39.072 38.304s-17.536 38.336-39.072 38.336-39.072-17.184-39.072-38.336c0-21.12 17.536-38.304 39.072-38.304zM212.576 60.928c21.536 0 39.072 17.184 39.072 38.304s-17.536 38.336-39.072 38.336-39.072-17.184-39.072-38.336c0-21.12 17.536-38.304 39.072-38.304z" />
<glyph unicode="&#xe915;" glyph-name="cart2" d="M426.656 128c0-35.36-28.672-64-64-64s-64 28.64-64 64c0 35.328 28.672 64 64 64s64-28.672 64-64zM576 192c-35.328 0-64-28.64-64-64s28.672-64 64-64 64 28.64 64 64c0 35.328-28.672 64-64 64zM632.992 405.344l84.352 298.656h-717.344l125.344-298.656h507.648zM845.024 832l-146.432-512h-537.472l35.808-85.344h564.864l148.224 512h82.304l31.712 85.344h-178.976z" />
<glyph unicode="&#xe916;" glyph-name="cart3" d="M426.656 128c0-35.36-28.672-64-64-64s-64 28.64-64 64c0 35.328 28.672 64 64 64s64-28.672 64-64zM576 192c-35.328 0-64-28.64-64-64s28.672-64 64-64 64 28.64 64 64c0 35.328-28.672 64-64 64zM125.312 405.344l-125.312 298.656h717.312l-84.352-298.656h-507.648zM604.576 618.656h-476.256l53.728-128h386.4l36.128 128zM845.024 832l-146.432-512h-537.472l35.808-85.344h564.864l148.224 512h82.304l31.712 85.344h-178.976z" />
<glyph unicode="&#xe917;" glyph-name="cart4" d="M1024 832l-31.712-85.344h-82.304l-148.224-512h-564.864l-196.896 469.344h717.312l-24.064-85.344h-564.896l125.312-298.656h444.928l146.432 512h178.976zM362.656 192c-35.328 0-64-28.672-64-64 0-35.36 28.672-64 64-64s64 28.64 64 64c0 35.328-28.672 64-64 64zM657.056 490.656l-81.056-298.656c-35.328 0-64-28.64-64-64s28.672-64 64-64 64 28.64 64 64c0 35.328-28.672 64-64 64z" />
<glyph unicode="&#xe918;" glyph-name="profile" d="M888.405 187.904c-146.731 33.877-283.307 63.573-217.173 188.501 201.387 380.245 53.376 583.595-159.232 583.595-216.832 0-361.131-211.157-159.232-583.595 68.139-125.653-73.6-155.349-217.173-188.501-131.115-30.293-136.021-95.403-135.595-209.237l0.171-42.667h1023.573l0.171 41.344c0.512 114.688-3.925 180.139-135.509 210.56z" />
<glyph unicode="&#xe919;" glyph-name="profile-punched" d="M888.405 187.904c-146.731 33.877-283.349 63.573-217.173 188.501 201.344 380.245 53.376 583.595-159.232 583.595-216.832 0-361.173-211.157-159.232-583.595 68.181-125.653-73.6-155.349-217.173-188.501-127.104-29.355-135.595-91.435-135.595-198.955l0.213-52.949h85.12c0 133.717-5.333 151.467 78.421 170.795 121.643 28.032 236.501 54.528 278.4 147.456 15.317 33.92 25.259 89.728-14.421 162.773-87.808 162.091-109.995 302.464-60.715 385.109 57.771 97.067 231.509 96.597 288.725 1.451 49.067-81.536 27.264-222.677-59.861-387.243-38.827-73.344-28.629-128.981-13.227-162.731 42.24-92.459 158.165-119.211 280.917-147.541 80.171-18.603 75.093-37.632 75.093-170.069h85.12l0.213 52.949c0 107.52-8.491 169.6-135.595 198.955z" />
<glyph unicode="&#xe91a;" glyph-name="profile-circle-punched" d="M512 960c-282.752 0-512-229.248-512-512s229.248-512 512-512 512 229.248 512 512-229.248 512-512 512zM842.795 178.987c-11.136 25.003-33.664 42.283-79.829 52.949-97.835 22.571-188.928 42.368-144.768 125.653 134.187 253.525 35.541 389.077-106.197 389.077-144.555 0-240.811-140.757-106.197-389.077 45.483-83.797-48.981-103.552-144.768-125.653-46.251-10.667-68.608-28.075-79.659-53.163-59.947 73.515-96.043 167.211-96.043 269.227 0 235.264 191.403 426.667 426.667 426.667s426.667-191.403 426.667-426.667c0-101.931-36.053-195.541-95.872-269.013z" />
<glyph unicode="&#xe91b;" glyph-name="cart1-right" d="M883.712 293.088c10.208 0 18.176 3.392 23.872 8.736 4.8 4.032 8.64 9.632 10.784 17.152 30.72 107.040 61.408 214.080 92.096 321.088 3.712 12.896 0.288 23.552-6.592 31.136-5.728 7.968-15.104 13.536-28.064 13.536-234.080 0-468.16 0-702.208 0-17.952 63.2-35.904 126.4-53.856 189.6-2.368 8.384-6.848 14.432-12.384 18.496-5.568 4.544-12.992 7.424-22.272 7.424-50.432 0-100.864 0-151.296 0-46.368 0-46.368-70.528 0-70.528 41.312 0 82.688 0 124 0 59.68-210.144 119.36-420.256 179.040-630.4-39.488-16.672-67.232-55.232-67.232-100.032 0-60.032 49.792-108.832 110.976-108.832s110.976 48.832 110.976 108.832c0 13.568-2.656 26.464-7.296 38.464 74.496 0 148.992 0 223.488 0-4.64-12-7.296-24.896-7.296-38.464 0-60.032 49.792-108.832 110.976-108.832s110.976 48.832 110.976 108.832c0 58.752-47.712 106.656-107.104 108.672-1.6 0.224-3.232 0.32-4.928 0.32-133.824 0-267.616 0-401.44 0-8.032 28.288-16.096 56.576-24.096 84.832 166.272 0 332.576 0 498.88 0zM339.232 453.6c24.96 0 49.92 0 74.912 0 4.256-29.984 8.448-60 12.704-89.984-20.704 0-41.376 0-62.048 0-8.512 29.984-17.056 60-25.568 89.984zM928.352 614.144c-8.608-30.016-17.216-60.032-25.824-90.016-28.064 0-56.096 0-84.192 0 4.256 29.984 8.48 60 12.704 90.016 32.448 0 64.832 0 97.28 0zM856.48 363.616c-20.256 0-40.512 0-60.768 0 4.256 29.984 8.448 60 12.704 89.984 24.64 0 49.248 0 73.888 0-8.608-29.984-17.216-60-25.824-89.984zM647.232 363.616c0 29.984 0 60 0 89.984 29.76 0 59.488 0 89.216 0-4.256-29.984-8.448-60-12.704-89.984-25.504 0-50.976 0-76.512 0zM746.368 524.128c-33.024 0-66.080 0-99.136 0 0 29.984 0 60 0 90.016 37.28 0 74.56 0 111.872 0-4.256-30.016-8.448-60.032-12.704-90.016zM575.328 524.128c-33.056 0-66.112 0-99.136 0-4.256 29.984-8.448 60-12.704 90.016 37.28 0 74.56 0 111.872 0 0-30.016 0-60.032 0-90.016zM575.328 453.6c0-29.984 0-60 0-89.984-25.504 0-50.976 0-76.512 0-4.256 29.984-8.448 60-12.704 89.984 29.728 0 59.456 0 89.216 0zM391.488 614.144c4.256-30.016 8.448-60.032 12.704-90.016-28.352 0-56.672 0-84.992 0-8.512 29.984-17.056 60-25.568 90.016 32.608 0 65.248 0 97.856 0zM380.576 60.928c-21.536 0-39.072 17.184-39.072 38.304s17.536 38.336 39.072 38.336 39.072-17.184 39.072-38.336c0-21.12-17.536-38.304-39.072-38.304zM811.424 60.928c-21.536 0-39.072 17.184-39.072 38.304s17.536 38.336 39.072 38.336 39.072-17.184 39.072-38.336c0-21.12-17.536-38.304-39.072-38.304z" />
<glyph unicode="&#xe91c;" glyph-name="cart2-right" d="M597.344 128c0-35.36 28.672-64 64-64s64 28.64 64 64c0 35.328-28.672 64-64 64s-64-28.672-64-64zM448 192c35.328 0 64-28.64 64-64s-28.672-64-64-64-64 28.64-64 64c0 35.328 28.672 64 64 64zM391.008 405.344l-84.352 298.656h717.344l-125.344-298.656h-507.648zM178.976 832l146.432-512h537.472l-35.808-85.344h-564.864l-148.224 512h-82.304l-31.712 85.344h178.976z" />
<glyph unicode="&#xe91d;" glyph-name="cart3-right" d="M597.344 128c0-35.36 28.672-64 64-64s64 28.64 64 64c0 35.328-28.672 64-64 64s-64-28.672-64-64zM448 192c35.328 0 64-28.64 64-64s-28.672-64-64-64-64 28.64-64 64c0 35.328 28.672 64 64 64zM898.688 405.344l125.312 298.656h-717.312l84.352-298.656h507.648zM419.424 618.656h476.256l-53.728-128h-386.4l-36.128 128zM178.976 832l146.432-512h537.472l-35.808-85.344h-564.864l-148.224 512h-82.304l-31.712 85.344h178.976z" />
<glyph unicode="&#xe91e;" glyph-name="cc-amex" horiz-adv-x="4160" d="M4158.635 946.628h-623.6c-9.228 0-23.133-4.677-27.684-13.905-46.266-46.266-92.359-92.359-138.625-138.625-41.589 46.266-83.131 92.359-124.72 138.625-9.228 9.228-18.456 13.905-32.361 13.905h-1422.737c-13.905 0-23.133-4.677-27.684-18.456l-106.264-235.535c-36.912 78.454-73.903 157.081-106.264 230.984-9.228 18.456-18.456 23.133-36.912 23.133h-1025.444c-18.456 0-27.684-4.677-36.912-23.133l-448.063-970.076h535.792c4.677 0 13.905 9.228 18.456 13.905 18.456 41.589 36.912 87.808 55.494 129.397 4.677 4.677 13.905 13.905 23.133 13.905h120.043c13.905 0 23.133-4.677 27.684-18.456 13.905-36.912 32.361-78.454 50.817-115.492 9.228-18.456 18.456-27.684 41.589-27.684 771.453 0 1538.229 0 2309.635 0 32.361 0 50.817 9.228 69.226 32.361 36.912 41.589 78.454 87.808 120.043 129.397 46.266-46.266 87.808-97.036 129.397-143.176 9.228-9.228 18.456-13.905 32.361-13.905h605.144c-157.081 166.309-314.115 332.571-466.519 494.203 157.081 161.632 484.975 498.88 484.975 498.88zM2172.343 92.044h-180.214v545.146c0 0-175.537-360.255-254.117-526.564-4.677-13.905-13.905-18.456-27.684-18.456h-115.492c-13.905 0-23.133 4.677-27.684 18.456l-254.117 531.241v-549.697h-341.799c-18.456 0-27.684 4.677-32.361 23.133-18.456 41.589-36.912 83.131-55.494 124.72-4.677 9.228-9.228 13.905-23.133 13.905-110.815 0-226.307 0-337.248 0-13.905 0-18.456-4.677-23.133-13.905-18.456-41.589-36.912-87.808-55.494-129.397-4.677-4.677-13.905-18.456-18.456-18.456-59.998 0-120.043 0-184.718 0l309.438 692.826c4.677 13.905 13.905 18.456 32.361 18.456 73.903 0 147.853 0 221.756 0 18.456 0 23.133-4.677 32.361-18.456l295.706-642.056v660.512h272.573c13.905 0 23.133-4.677 27.684-18.456l226.307-461.968 207.851 461.968c4.677 4.677 9.228 18.456 18.456 18.456h286.352v-711.408zM3807.608 92.044h-193.946c-27.684 0-41.589 9.228-59.998 27.684 0 0-189.395 207.851-193.946 212.528 0 0-170.986-175.537-217.079-226.307-4.677-4.677-18.456-13.905-27.684-13.905h-785.232v711.408h794.586c18.456 0 32.361-4.677 41.589-18.456 59.998-69.226 124.72-143.176 189.395-212.528l217.079 221.756c4.677 4.677 13.905 9.228 23.133 9.228 73.903 0 143.176 0 221.756 0-120.043-120.043-230.984-240.212-346.476-355.704 115.492-120.043 226.307-240.212 337.248-355.704zM574.116 401.608h244.763l-124.72 281.801-120.043-281.801zM2929.891 771.091c0-36.912 0-115.492 0-115.492h-424.977v-124.72h424.977v-147.853h-424.977v-143.176h424.977v-106.264c106.264 106.264 207.851 212.528 309.438 314.115-101.587 106.264-203.174 217.079-309.438 323.343 0 0 4.677 0 0 0z" />
<glyph unicode="&#xe91f;" glyph-name="cart4-right" d="M0 832l31.712-85.344h82.304l148.224-512h564.864l196.896 469.344h-717.312l24.064-85.344h564.896l-125.312-298.656h-444.928l-146.432 512h-178.976zM661.344 192c35.328 0 64-28.672 64-64 0-35.36-28.672-64-64-64s-64 28.64-64 64c0 35.328 28.672 64 64 64zM366.944 490.656l81.056-298.656c35.328 0 64-28.64 64-64s-28.672-64-64-64-64 28.64-64 64c0 35.328 28.672 64 64 64z" />
<glyph unicode="&#xe920;" glyph-name="social-google-plus1-square" d="M0 960v-1024h1024v1024h-1024zM369.792 248.875c-110.123 0-199.125 89.045-199.125 199.125s89.003 199.125 199.125 199.125c53.76 0 98.688-19.627 133.419-52.053l-54.059-52.053c-14.805 14.208-40.704 30.72-79.36 30.72-67.968 0-123.435-56.32-123.435-125.739s55.467-125.739 123.435-125.739c78.805 0 108.373 56.619 112.939 85.888h-112.939v68.267h187.989c1.749-9.941 3.157-19.925 3.157-32.981 0-113.749-76.245-194.56-191.147-194.56zM853.333 419.541h-85.333v-85.333h-56.875v85.333h-85.333v56.875h85.333v85.333h56.875v-85.333h85.333v-56.875z" />
<glyph unicode="&#xe921;" glyph-name="social-vimeo-square" d="M0 960v-1024h1024v1024h-1024zM821.291 502.101c-69.461-148.395-237.141-350.421-343.125-350.421-104.448 0-119.552 222.763-176.597 371.029-28.075 72.917-46.208 56.192-98.816 19.371l-32.085 41.387c76.715 67.456 153.557 145.835 200.747 150.187 53.12 5.12 85.845-31.189 98.091-108.971 16.171-102.229 38.741-260.864 78.165-260.864 30.72 0 106.411 125.867 110.293 170.837 6.912 65.877-48.427 67.883-96.469 47.317 75.989 249.003 392.277 203.136 259.797-79.872z" />
<glyph unicode="&#xe922;" glyph-name="social-vimeo-circle" d="M512 960c-282.752 0-512-229.248-512-512s229.248-512 512-512 512 229.248 512 512-229.248 512-512 512zM760.32 472.789c-55.723-119.125-190.421-281.387-275.541-281.387-83.883 0-96 178.859-141.824 297.941-22.485 58.539-37.035 45.141-79.275 15.531l-25.771 33.237c61.611 54.187 123.264 117.12 161.195 120.576 42.581 4.096 68.907-25.045 78.72-87.509 13.013-82.091 31.104-209.493 62.805-209.493 24.619 0 85.461 101.077 88.576 137.173 5.547 52.907-38.912 54.485-77.44 37.973 61.013 200.064 315.008 163.2 208.555-64.043z" />
<glyph unicode="&#xe923;" glyph-name="social-vimeo-circle-punched" d="M512 874.667c235.264 0 426.667-191.403 426.667-426.667s-191.403-426.667-426.667-426.667-426.667 191.403-426.667 426.667 191.403 426.667 426.667 426.667zM512 960c-282.752 0-512-229.248-512-512s229.248-512 512-512 512 229.248 512 512-229.248 512-512 512zM743.936 454.827c-52.053-111.275-177.792-262.827-257.28-262.827-78.379 0-89.728 167.083-132.523 278.272-20.992 54.699-34.56 42.155-73.984 14.507l-24.149 31.061c57.6 50.603 115.115 109.355 150.571 112.64 39.808 3.84 64.341-23.381 73.557-81.749 12.117-76.672 29.056-195.627 58.624-195.627 22.997 0 79.829 94.379 82.688 128.128 5.163 49.451-36.352 50.901-72.32 35.499 57.003 186.752 294.272 152.363 194.816-59.904z" />
<glyph unicode="&#xe924;" glyph-name="social-google-plus1-circle-punched" d="M512 874.667c235.264 0 426.667-191.403 426.667-426.667s-191.403-426.667-426.667-426.667-426.667 191.403-426.667 426.667 191.403 426.667 426.667 426.667zM512 960c-282.752 0-512-229.248-512-512s229.248-512 512-512 512 229.248 512 512-229.248 512-512 512zM363.725 477.655v-71.172h117.73c-4.744-30.486-35.646-89.558-117.73-89.558-70.816 0-128.703 58.717-128.703 131.074s57.887 131.074 128.703 131.074c40.39 0 67.317-17.199 82.797-32.087l56.286 54.328c-36.179 33.807-83.093 54.269-139.081 54.269-114.824 0-207.584-92.819-207.584-207.584s92.761-207.584 207.584-207.584c119.806 0 199.221 84.161 199.221 202.78 0 13.641-1.423 24.020-3.263 34.4l-195.96 0.060zM867.859 418.345h-88.965v-88.965h-59.31v88.965h-88.965v59.31h88.965v88.965h59.31v-88.965h88.965v-59.31z" />
<glyph unicode="&#xe925;" glyph-name="ssl1" d="M512 708.267c-46.933 0-89.6-38.4-89.6-85.333v-85.333h174.933v85.333c4.267 46.933-38.4 85.333-85.333 85.333zM512 960c-145.067-123.733-234.667-128-384-128v-490.667c0-196.267 136.533-247.467 384-405.333 247.467 157.867 384 209.067 384 405.333v490.667c-149.333 0-238.933 4.267-384 128zM708.267 230.4h-392.533v302.933h64v85.333c0 72.533 59.733 132.267 132.267 132.267s132.267-59.733 132.267-132.267v-85.333h64v-302.933z" />
<glyph unicode="&#xe926;" glyph-name="ssl2" horiz-adv-x="2826" d="M2243.978 593.684c-4.124 6.276-9.862 11.117-17.392 13.986-7.351 3.048-17.213 4.662-29.406 4.662h-34.605v-144.877h37.833c11.655 0 21.158 1.614 28.151 4.841s12.193 7.889 15.958 13.986c3.765 6.096 6.276 13.627 7.531 22.413s1.972 19.185 1.972 31.019-0.717 22.234-1.972 31.199c-1.255 8.786-3.945 16.496-8.069 22.771zM2313.727 960h-1801.817c-281.506 0-511.91-230.404-511.91-511.91v0c0-281.506 230.404-511.91 511.91-511.91h1801.817c281.506 0 511.91 230.404 511.91 511.91v0c0.179 281.506-230.225 511.91-511.91 511.91zM530.199 50.037c-219.826 0-398.053 178.227-398.053 398.053s178.227 398.053 398.053 398.053c219.826 0 398.053-178.227 398.053-398.053s-178.227-398.053-398.053-398.053zM1262.115 541.148h-66.521v15.061c0 15.241-3.586 28.33-10.758 39.447s-19.365 16.675-36.219 16.675c-9.144 0-16.675-1.793-22.413-5.2s-10.579-8.069-13.806-13.448-5.558-11.834-6.814-19.006-1.972-14.524-1.972-22.413c0-9.144 0.179-16.854 0.897-23.13 0.538-6.276 2.331-11.655 4.841-16.317 2.69-4.662 6.634-8.607 11.475-12.013 5.020-3.586 11.834-6.993 20.62-10.4l50.922-20.261c14.703-5.738 26.716-12.372 35.861-19.903s16.137-16.496 21.158-26.716 8.427-22.054 10.22-35.143c1.793-13.268 2.69-28.33 2.69-45.364 0-19.544-1.972-37.654-5.917-54.508-3.945-16.675-10.4-31.019-19.185-43.033-8.965-12.013-20.799-21.516-35.502-28.509-15.061-6.814-32.992-10.4-54.329-10.4-16.137 0-31.019 2.869-45.005 8.427-13.986 5.738-25.999 13.448-35.861 23.309-10.041 9.682-17.93 21.337-23.847 34.785s-8.786 28.151-8.786 43.75v24.744h66.521v-20.799c0-12.193 3.586-23.13 10.758-32.992s19.185-14.703 36.219-14.703c11.296 0 20.082 1.614 26.358 4.841s11.117 7.71 14.344 13.627c3.407 5.917 5.379 13.268 6.276 21.875s1.255 18.289 1.255 28.688c0 12.193-0.359 22.234-1.255 29.944-0.897 8.069-2.69 14.344-5.558 19.006-2.869 4.841-6.814 8.786-11.834 11.834s-11.475 6.276-19.903 9.862l-47.515 19.544c-28.688 11.655-48.053 27.254-57.736 46.619s-14.703 43.571-14.703 72.618c0 17.392 2.331 33.888 7.172 49.488 4.841 15.779 11.834 29.226 21.158 40.523s21.158 20.261 35.502 27.075 31.019 10.041 50.205 10.041c16.496 0 31.737-3.048 45.364-9.144 13.806-5.917 25.461-13.986 35.323-24.027 9.682-10.041 17.213-21.158 22.413-33.53s7.889-25.102 7.889-38.192v-32.633zM1509.911 612.331h-131.788v-136.27h114.754v-62.577h-114.754v-136.27h131.788v-66.701h-198.309v464.395h198.13v-62.577zM1764.163 541.865h-66.521v22.054c0 13.089-3.765 24.385-11.117 33.888-7.531 9.503-17.392 14.344-29.944 14.344-16.496 0-27.433-5.2-32.992-15.241-5.379-10.22-8.069-23.13-8.069-38.729v-237.397c0-13.448 2.869-24.744 8.786-33.888s16.496-13.806 31.557-13.806c4.303 0 8.965 0.717 14.165 2.331 5.020 1.614 9.503 3.945 13.627 7.531s7.531 8.248 10.22 14.344c2.51 6.096 3.765 13.627 3.765 22.771v22.771h66.521v-28.688c0-14.344-2.69-27.971-8.069-41.060s-12.91-24.385-22.592-34.247c-9.503-9.682-20.62-17.572-33.53-23.489-12.731-5.738-26.537-8.786-41.419-8.786-12.551 0-25.461 1.793-38.371 5.2s-24.744 9.503-35.143 17.93c-10.579 8.607-19.185 19.723-25.999 33.709s-10.041 31.378-10.041 52.894v255.507c0 15.241 2.69 29.406 7.71 42.316 5.2 13.089 12.551 24.385 22.234 33.888 9.682 9.682 20.978 17.213 34.426 22.592 13.268 5.379 27.971 8.069 43.929 8.069 15.241 0 29.406-2.69 42.495-8.069s24.385-13.089 33.888-22.771c9.503-9.862 17.034-21.516 22.413-35.323 5.379-13.627 8.069-28.509 8.069-44.646v-25.999zM2033.656 314.867c0-15.241-2.869-29.406-8.427-42.316-5.738-13.089-13.448-24.565-23.13-34.247-9.682-9.862-21.158-17.572-34.247-23.13s-26.895-8.427-41.598-8.427c-14.882 0-28.688 2.869-41.778 8.427-13.089 5.738-24.385 13.448-34.247 23.13s-17.572 21.158-23.13 34.247c-5.558 13.089-8.427 27.075-8.427 42.316v360.041h66.521v-353.586c0-16.496 3.945-28.688 11.655-36.578 7.889-7.71 17.751-11.655 29.406-11.655s21.516 3.945 29.406 11.655c7.71 7.889 11.655 20.082 11.655 36.578v353.586h66.521v-360.041zM2264.419 210.513l-61.86 198.13h-39.805v-198.13h-66.521v464.395h106.865c78.355 0 117.444-45.364 117.444-136.27 0-26.895-4.124-50.205-12.731-69.39-8.427-19.365-23.309-34.964-44.826-46.619l71.721-211.936h-70.287zM2572.282 612.331h-131.608v-136.27h114.754v-62.577h-114.754v-136.27h131.608v-66.701h-198.309v464.395h198.13v-62.577zM471.567 556.747v-53.074h108.837v53.074c2.51 29.226-24.027 53.074-53.253 53.074s-55.584-23.847-55.584-53.074zM288.499 686.742v-305.174c0-122.105 84.99-153.842 238.832-252.1 153.842 98.079 238.832 129.995 238.832 252.1v305.174c-92.879 0-148.642 2.69-238.832 79.611-90.369-76.921-145.953-79.611-238.832-79.611zM609.451 554.237v-53.074h39.805v-188.448h-244.032v188.448h39.805v53.074c0 45.184 37.116 82.3 82.3 82.3s82.121-37.295 82.121-82.3z" />
<glyph unicode="&#xe927;" glyph-name="ssl3" horiz-adv-x="2209" d="M1697.283 960h-1185.194c-281.685 0-512.090-230.404-512.090-511.91v0c0-281.506 230.404-511.91 511.91-511.91h1185.194c281.506 0 511.91 230.404 511.91 511.91v0c0.179 281.506-230.225 511.91-511.731 511.91zM530.199 49.857c-219.826 0-398.053 178.227-398.053 398.053s178.227 398.053 398.053 398.053c219.826 0 398.053-178.227 398.053-398.053s-178.227-398.053-398.053-398.053zM1383.323 541.148h-66.521v15.061c0 15.241-3.586 28.33-10.758 39.447s-19.185 16.675-36.040 16.675c-9.144 0-16.675-1.793-22.413-5.2s-10.758-8.069-13.986-13.448-5.379-11.834-6.814-19.006-1.793-14.524-1.793-22.413c0-9.144 0.179-16.854 0.897-23.13 0.538-6.276 2.331-11.655 4.841-16.317s6.455-8.607 11.475-12.013c5.020-3.586 11.834-6.993 20.441-10.4l50.922-20.261c14.703-5.738 26.716-12.372 35.861-19.903s16.137-16.496 21.158-26.716 8.427-22.054 10.22-35.143c1.793-13.268 2.69-28.33 2.69-45.364 0-19.544-1.972-37.654-5.917-54.508-3.945-16.675-10.4-31.019-19.185-43.033-8.965-12.013-20.799-21.516-35.502-28.509-15.061-6.814-32.992-10.4-54.329-10.4-16.137 0-31.019 2.869-45.005 8.427-13.806 5.738-25.82 13.448-35.861 23.309-10.041 9.682-17.93 21.337-23.847 34.785s-8.786 27.971-8.786 43.75v24.744h66.521v-20.799c0-12.193 3.586-23.13 10.758-32.992s19.185-14.703 36.219-14.703c11.296 0 20.082 1.614 26.358 4.841s11.117 7.71 14.344 13.627c3.407 5.917 5.379 13.268 6.276 21.875s1.255 18.289 1.255 28.688c0 12.193-0.359 22.234-1.255 29.944-0.897 8.069-2.69 14.344-5.558 19.006-2.869 4.841-6.634 8.786-11.655 11.834-5.2 3.048-11.655 6.276-20.082 9.862l-47.515 19.544c-28.688 11.655-48.053 27.254-57.736 46.619s-14.703 43.571-14.703 72.618c0 17.392 2.331 33.888 7.172 49.488 4.662 15.599 11.834 29.226 21.158 40.523s21.158 20.261 35.502 27.075 31.019 10.041 50.205 10.041c16.496 0 31.737-3.048 45.364-9.144 13.806-6.096 25.461-14.165 35.143-24.206 10.041-9.862 17.572-20.978 22.592-33.35 5.2-12.372 7.889-25.102 7.889-38.192v-32.633zM1648.154 541.148h-66.521v15.061c0 15.241-3.586 28.33-10.758 39.447s-19.365 16.675-36.219 16.675c-9.144 0-16.675-1.793-22.413-5.2s-10.579-8.069-13.806-13.448-5.558-11.834-6.814-19.006-1.972-14.524-1.972-22.413c0-9.144 0.179-16.854 0.897-23.13 0.538-6.276 2.331-11.655 4.841-16.317 2.69-4.662 6.455-8.607 11.475-12.013 5.020-3.586 11.834-6.993 20.62-10.4l50.922-20.261c14.703-5.738 26.716-12.372 35.861-19.903s16.137-16.496 21.158-26.716 8.427-22.054 10.22-35.143c1.793-13.268 2.69-28.33 2.69-45.364 0-19.544-1.972-37.654-5.917-54.508-3.945-16.675-10.4-31.019-19.185-43.033-8.965-12.013-20.799-21.516-35.502-28.509-15.061-6.814-33.171-10.4-54.329-10.4-16.137 0-31.019 2.869-45.005 8.427-13.986 5.738-25.999 13.448-35.861 23.13-10.041 9.862-18.11 21.516-23.847 34.964s-8.786 27.971-8.786 43.75v24.744h66.521v-20.799c0-12.193 3.586-23.13 10.758-32.992s19.185-14.703 36.219-14.703c11.296 0 20.082 1.614 26.358 4.841s11.117 7.71 14.344 13.627c3.407 5.917 5.379 13.268 6.276 21.875s1.255 18.289 1.255 28.688c0 12.193-0.359 22.234-1.255 29.944-0.897 8.069-2.869 14.344-5.558 19.006-2.869 4.841-6.814 8.786-11.834 11.834s-11.655 6.276-19.903 9.862l-47.515 19.544c-28.688 11.655-48.053 27.254-57.736 46.619-9.862 19.365-14.703 43.571-14.703 72.618 0 17.392 2.331 33.888 7.172 49.488 4.662 15.599 11.834 29.226 21.158 40.523s21.158 20.261 35.502 27.075 31.019 10.041 50.205 10.041c16.496 0 31.737-3.048 45.364-9.144 13.806-6.096 25.461-14.165 35.143-24.206 9.862-9.862 17.392-20.978 22.592-33.35s7.889-25.102 7.889-38.192v-32.633zM1895.951 210.513h-198.309v464.395h66.521v-397.874h131.788v-66.521zM471.567 556.747v-53.074h108.837v53.074c2.51 29.226-24.027 53.074-53.253 53.074s-55.584-23.847-55.584-53.074zM288.499 686.742v-305.174c0-122.105 84.99-153.842 238.832-252.1 153.842 98.079 238.832 129.995 238.832 252.1v305.174c-92.879 0-148.642 2.69-238.832 79.611-90.369-76.921-145.953-79.611-238.832-79.611zM609.451 554.237v-53.074h39.805v-188.448h-244.032v188.448h39.805v53.074c0 45.184 37.116 82.3 82.3 82.3s82.121-37.295 82.121-82.3z" />
<glyph unicode="&#xe928;" glyph-name="minus1-circle-punched" d="M512 874.667c235.264 0 426.667-191.403 426.667-426.667s-191.403-426.667-426.667-426.667-426.667 191.403-426.667 426.667 191.403 426.667 426.667 426.667zM512 960c-282.752 0-512-229.248-512-512s229.248-512 512-512 512 229.248 512 512-229.248 512-512 512zM768 375.125h-512v145.792h512v-145.792z" />
<glyph unicode="&#xe929;" glyph-name="minus1-circle" d="M512 960c-282.752 0-512-229.248-512-512s229.248-512 512-512 512 229.248 512 512-229.248 512-512 512zM810.667 362.667h-597.333v170.667h597.333v-170.667z" />
<glyph unicode="&#xe92a;" glyph-name="plus2-circle" d="M512 960c-282.752 0-512-229.248-512-512s229.248-512 512-512 512 229.248 512 512-229.248 512-512 512zM810.667 362.667h-213.333v-213.333h-170.667v213.333h-213.333v170.667h213.333v213.333h170.667v-213.333h213.333v-170.667z" />
<glyph unicode="&#xe934;" glyph-name="cc-discover" horiz-adv-x="5904" d="M271.832 926.817h-275.469v-944.75h269.027c144.303 0 249.261 32.839 341.147 111.463 105.020 91.886 170.511 223.114 170.511 360.914 0 275.469-209.98 472.377-505.216 472.377zM481.811 218.252c-59.047-52.416-131.166-72.12-255.952-72.12h-45.973v623.31h52.416c118.095 0 190.213-19.767 255.952-78.814s105.020-144.303 105.020-236.188c-6.63-91.886-45.973-177.142-111.463-236.188zM862.301-17.934h183.772v944.75h-183.772v-944.75zM1498.684 566.093c-111.463 39.28-144.303 65.678-144.303 118.095 0 59.047 59.047 105.020 137.861 105.020 52.416 0 98.327-19.767 150.933-78.814l98.327 124.725c-78.814 72.12-177.142 105.020-275.469 105.020-170.511 0-295.235-118.095-295.235-269.027 0-131.166 59.047-196.905 236.188-255.952 72.12-26.209 111.463-39.28 124.725-52.416 39.28-26.209 52.416-59.047 52.416-98.327 0-78.814-59.047-131.166-144.303-131.166s-157.375 45.973-203.349 124.725l-118.095-111.463c85.255-124.725 190.213-177.142 328.075-177.142 190.213 0 328.075 124.725 328.075 308.308 0 144.303-65.678 209.98-275.469 288.602zM1826.759 454.44c0-275.469 216.422-492.14 498.583-492.14 78.814 0 150.933 13.073 229.558 52.416v216.422c-72.12-72.12-137.861-105.020-223.114-105.020-183.772 0-315 137.861-315 328.075 0 183.772 137.861 321.443 308.308 321.443 85.255 0 157.375-32.839 229.558-105.020v216.422c-78.814 39.28-150.933 59.047-229.558 59.047-269.027 0-498.583-216.422-498.583-492.14zM4024.568 290.563l-249.261 636.382h-203.349l400.194-970.959h98.327l406.697 970.959h-203.349l-249.261-636.382zM4562.624-17.934h524.791v157.375h-341.147v255.952h328.075v157.375h-328.075v209.98h341.147v157.375h-524.791v-938.12zM5605.71 382.26c137.861 26.209 216.422 124.725 216.422 269.027 0 177.142-124.725 282.099-334.517 282.099h-275.469v-944.75h183.772v380.491h26.209l255.952-380.491h229.558l-301.867 393.563zM5448.327 493.913h-52.416v288.602h59.047c118.095 0 177.142-45.973 177.142-137.861 0-98.327-65.678-150.933-183.772-150.933zM3125.793 953.216c-275.469 0-505.216-223.114-505.216-505.216 0-275.469 223.114-505.216 505.216-505.216 275.469 0 505.216 223.114 505.216 505.216s-229.558 505.216-505.216 505.216zM3132.423 93.717c-196.905 0-354.283 157.375-354.283 354.283s157.375 354.283 354.283 354.283c196.905 0 354.283-157.375 354.283-354.283s-157.375-354.283-354.283-354.283z" />
<glyph unicode="&#xe951;" glyph-name="cc-mc" horiz-adv-x="6240" d="M2459.068 572.104h110.194l27.624 192.818h-103.156l20.532 123.936h-213.404c-6.844-6.844-123.936-688.225-123.936-770.839 0-123.936 68.882-178.936 165.248-178.936 75.78 0 137.624 20.532 158.35 27.624l27.624 178.936c-13.688 0-34.468-6.844-55-6.844-75.78 0-82.624 41.312-75.78 68.882l61.844 364.87zM3216.22 296.667c0 0 27.624 137.624 27.624 192.818 0 137.624-68.882 302.818-302.818 302.818-213.404 0-371.72-227.092-371.72-481.913 0-295.974 199.662-364.87 364.87-364.87 151.506 0 220.248 34.468 220.248 34.468l34.468 199.662c0 0-117.038-48.156-227.092-48.156-227.092 0-185.78 165.248-185.78 165.248s440.636 0 440.636 0zM2940.779 599.674c117.038 0 96.312-130.78 96.312-144.468h-227.092c0 20.532 20.532 144.468 130.78 144.468zM3932.019 379.286c0 247.818 130.78 378.598 275.442 378.598 110.194 0 192.818-61.844 192.818-61.844l34.468 220.248c0 0-130.78 48.156-234.13 48.156-240.974 0-481.913-206.506-481.913-598.787 0-261.56 130.78-433.567 378.598-433.567 68.882 0 185.78 27.624 185.78 27.624l34.468 227.092c0 0-103.156-48.156-172.092-48.156-151.506 6.844-213.404 123.936-213.404 240.974zM1350.798 785.453c-144.468 0-254.662-48.156-254.662-48.156l-27.624-178.936c0 0 89.468 34.468 227.092 34.468 75.78 0 137.624-6.844 137.624-68.882 0-41.312-6.844-55-6.844-55s-61.844 6.844-89.468 6.844c-178.936 0-371.72-75.78-371.72-309.67 0-185.78 123.936-227.092 206.506-227.092 151.506 0 213.404 96.312 213.404 96.312l-6.844-82.624h185.78l82.624 571.374c-6.844 254.662-227.092 261.56-295.974 261.56zM1240.795 117.731c-68.882 0-82.624 48.156-82.624 75.78 0 55 34.468 123.936 185.78 123.936 34.468 0 41.312-6.844 48.156-6.844 6.844-27.624-20.726-192.818-151.506-192.818zM2018.465 592.636c27.624 0 144.468-6.844 144.468-6.844l27.624 185.78c0 0-75.78 13.688-192.818 13.688-158.35 0-316.723-61.844-316.723-275.442 0-240.974 261.56-213.404 261.56-316.723 0-68.882-75.78-75.78-130.78-75.78-96.312 0-185.78 34.468-185.78 34.468l-27.624-178.936c6.844 0 61.844-27.624 234.13-27.624 48.156 0 316.723-13.688 316.723 268.404 0 261.56-254.662 206.506-254.662 309.67 6.844 55 48.156 68.882 123.936 68.882zM6024.471 950.652l-48.156-275.442c0 0-82.624 110.194-206.506 110.194-192.818 0-350.974-227.092-350.974-495.637 0-172.092 82.624-337.286 261.56-337.286 123.936 0 199.662 89.468 199.662 89.468l-6.844-75.78h206.506l158.35 991.239-213.404-6.844zM5756.115 152.199c-75.78 0-110.194 61.844-110.194 165.248 0 158.35 75.78 268.404 165.248 268.404 75.78 0 117.038-48.156 117.038-172.092 0-117.038-55-261.56-172.092-261.56zM697.034 950.652l-206.506-605.837-13.688 605.837h-302.818l-172.092-991.239h206.506l123.936 750.273 20.532-750.273h144.468l268.404 750.273-117.038-750.273h213.404l165.248 991.239c0 0-330.442 0-330.442 0zM3711.813 778.609c-96.312 0-165.248-130.78-165.248-130.78l20.532 117.038h-199.662l-130.78-805.274h213.404c61.844 344.13 75.78 626.375 220.248 571.374 27.624 130.78 48.156 185.78 75.78 240.974 6.844 0-6.844 6.844-34.468 6.844zM4764.894 785.453c-144.468 0-254.662-48.156-254.662-48.156l-27.624-178.936c0 0 89.468 34.468 227.092 34.468 75.78 0 137.624-6.844 137.624-68.882 0-41.312-6.844-55-6.844-55s-61.844 6.844-89.468 6.844c-178.936 0-371.72-75.78-371.72-309.67 0-185.78 123.936-227.092 206.506-227.092 151.506 0 213.404 96.312 213.404 96.312l-6.844-82.624h185.78l82.624 571.374c-6.844 254.662-220.248 261.56-295.974 261.56zM4661.742 117.731c-68.882 0-82.624 48.156-82.624 75.78 0 55 34.468 123.936 185.78 123.936 34.468 0 41.312-6.844 48.156-6.844 0-27.624-27.624-192.818-151.506-192.818zM5522.014 771.765c0 0-13.688 0-41.312 0-96.312 0-165.248-130.78-165.248-130.78l20.532 117.038h-199.662l-130.78-805.274h213.404c61.844 344.13 75.78 626.375 220.248 571.374 27.624 144.468 55 192.818 82.624 247.818z" />
<glyph unicode="&#xe960;" glyph-name="cc-paypal" horiz-adv-x="5104" d="M2781.084 728.791c-33.817 0-180.6 0-180.6 0-33.817 0-73.342-22.5-95.842-56.483 0 0-220.125-355.425-242.625-389.242-11.25-16.958-22.5-5.708-28.275 0 0 11.25-67.733 383.7-67.733 383.7-5.708 28.275-39.525 56.483-84.592 56.483h-135.367c-33.817 0-50.775-22.5-45.067-56.483 0 0 101.55-558.592 124.117-688.35 11.25-73.342 0-84.592 0-84.592l-135.367-220.125c-16.958-28.275-11.25-56.483 22.5-56.483h158.033c33.817 0 73.342 22.5 95.842 56.483l609.367 970.5c0 0 56.483 84.592 5.708 84.592zM1009.533 819.091c-16.958 33.817-45.067 62.025-84.592 84.592s-79.050 39.525-129.825 45.067c-50.775 11.25-112.8 11.25-180.6 11.25h-315.967c-33.817 0-67.733-22.5-73.342-56.483l-220.125-874.492c-5.708-28.275 11.25-56.483 45.067-56.483h152.325c33.817 0 67.733 22.5 73.342 56.483l50.775 214.35c5.708 28.275 39.525 56.483 73.342 56.483h45.067c186.142 0 332.925 33.817 434.475 107.258s158.033 169.283 158.033 282.15c0 50.775-11.25 95.842-28.275 129.825zM676.608 531.233c-45.067-33.817-107.258-45.067-191.85-45.067h-39.525c-33.817 0-56.483 22.5-45.067 56.483l45.067 186.142c5.708 28.275 39.525 56.483 73.342 56.483h50.775c56.483 0 101.55-11.25 129.825-28.275s45.067-45.067 45.067-84.592c5.708-67.733-16.958-112.8-67.733-141.075zM1742.95 695.041c-56.483 28.275-146.617 45.067-270.9 45.067-62.025 0-124.117-5.708-186.142-11.25-45.067-5.708-50.775-5.708-79.050-11.25-56.483-11.25-67.733-67.733-67.733-67.733l-16.958-73.342c-11.25-45.067 16.958-45.067 28.275-39.525 22.5 5.708 39.525 16.958 90.3 28.275s101.55 16.958 141.075 16.958c62.025 0 107.258-5.708 135.367-16.958s45.067-33.817 45.067-67.733c0-5.708 0-16.958 0-22.5s-5.708-11.25-22.5-11.25c-84.592-5.708-146.617-11.25-225.667-22.5-73.342-11.25-141.075-28.275-191.85-50.775-56.483-22.5-101.55-56.483-129.825-95.842s-45.067-90.3-45.067-152.325c0-56.483 22.5-101.55 62.025-135.367s95.842-50.775 158.033-50.775c39.525 0 73.342 5.708 95.842 5.708 22.5 5.708 45.067 11.25 73.342 22.5 16.958 5.708 39.525 16.958 62.025 33.817 22.5 11.25 39.525 22.5 56.483 33.817v0l-5.708-22.5c-5.708-28.275 11.25-50.775 39.525-56.483v0 0 0c16.958 0 84.592 0 118.508 0h33.817c28.275 5.708 56.483 28.275 67.733 56.483l112.8 451.267c0 11.25 5.708 22.5 5.708 39.525s5.708 28.275 0 33.817c0 62.025-28.275 107.258-84.592 141.075zM1528.6 305.566c0-11.25-22.5-84.592-28.275-124.117 0-11.25-16.958-28.275-22.5-28.275-16.958-11.25-39.525-22.5-62.025-28.275-28.275-11.25-56.483-16.958-79.050-16.958-39.525 0-67.733 5.708-84.592 16.958s-28.275 28.275-28.275 56.483 5.708 50.775 22.5 67.733 39.525 33.817 67.733 39.525c28.275 11.25 62.025 16.958 101.55 22.5 33.817 5.708 101.55 11.25 112.8 11.25 0 0 5.708 5.708 0-16.958zM4507.568 689.266c-56.483 28.275-146.617 45.067-270.9 45.067-62.025 0-124.117-5.708-186.142-11.25-45.067-5.708-50.775-5.708-79.050-11.25-56.483-11.25-67.733-67.733-67.733-67.733l-16.958-73.342c-11.25-45.067 16.958-45.067 28.275-39.525 22.5 5.708 39.525 16.958 90.3 22.5 50.775 11.25 101.55 16.958 141.075 16.958 62.025 0 107.258-5.708 135.367-16.958s45.067-33.817 45.067-67.733c0-5.708 0-16.958 0-22.5s-5.708-11.25-22.5-11.25c-84.592-5.708-152.325-11.25-225.667-22.5s-141.075-28.275-191.85-50.775c-56.483-22.5-101.55-56.483-129.825-95.842s-45.067-90.3-45.067-152.325c0-56.483 22.5-101.55 62.025-135.367s95.842-50.775 158.033-50.775c39.525 0 73.342 5.708 95.842 5.708 22.5 5.708 45.067 11.25 73.342 22.5 16.958 5.708 39.525 16.958 62.025 33.817 22.5 11.25 39.525 22.5 56.483 33.817v0l-5.708-22.5c-5.708-28.275 11.25-50.775 39.525-56.483v0 0 0c16.958 0 84.592 0 118.508 0h22.5c28.275 5.708 56.483 28.275 67.733 56.483l112.8 451.267c0 11.25 5.708 22.5 5.708 39.525s5.708 28.275 0 33.817c16.958 73.342-11.25 118.508-73.342 146.617zM4293.151 300.024c0-11.25-22.5-84.592-28.275-124.117 0-11.25-16.958-28.275-22.5-28.275-16.958-11.25-39.525-22.5-62.025-28.275-28.275-11.25-56.483-16.958-79.050-16.958-39.525 0-67.733 5.708-84.592 16.958s-28.275 28.275-28.275 56.483 5.708 50.775 22.5 67.733 39.525 33.817 67.733 39.525c28.275 11.25 62.025 16.958 101.55 22.5 33.817 5.708 101.55 11.25 112.8 11.25 0 5.708 5.708 5.708 0-16.958zM3774.151 813.383c-16.958 33.817-45.067 62.025-84.592 84.592s-79.050 39.525-129.825 45.067-112.8 11.25-180.6 11.25h-321.675c-33.817 0-67.733-22.5-73.342-56.483l-214.35-880.2c-5.708-28.275 11.25-56.483 45.067-56.483h152.325c33.817 0 67.733 22.5 73.342 56.483l50.775 214.35c5.708 28.275 39.525 56.483 73.342 56.483h45.067c186.142 0 332.925 33.817 434.475 107.258s158.033 169.283 158.033 287.692c0 50.775-5.708 95.842-28.275 129.825zM3446.934 525.691c-45.067-33.817-107.258-45.067-191.85-45.067h-39.525c-33.817 0-56.483 22.5-45.067 56.483l45.067 186.142c5.708 28.275 39.525 56.483 73.342 56.483h50.775c56.483 0 101.55-11.25 129.825-28.275s45.067-45.067 45.067-84.592c0-62.025-22.5-107.258-67.733-141.075zM5038.051 948.916h-135.367c-33.817 0-62.025-22.5-73.342-50.775 0 0 0 0 0-5.708 0 0-5.708-11.25-11.25-39.525l-186.142-795.509c-5.708-16.958-5.708-28.275-5.708-33.817v0c-5.708-28.275 11.25-50.775 39.525-56.483v0h141.075c28.275 0 62.025 22.5 73.342 50.775 0 0 0 0 0 5.708l203.1 874.492c5.708 28.275-16.958 50.775-45.067 50.775z" />
<glyph unicode="&#xe96f;" glyph-name="cc-visa" horiz-adv-x="3200" d="M1128.671-40.964h258.727l163.034 974.451h-258.727l-163.034-974.451zM2067.65 543.713c-88.605 46.045-145.298 74.429-145.298 120.474 0 38.957 46.045 85.002 148.783 85.002 85.002 0 145.298-17.736 194.946-38.957l24.824-10.648 35.472 212.564c-49.648 21.221-131.165 42.56-230.3 42.56-255.124 0-435.819-131.165-435.819-322.508 0-141.695 127.562-219.652 226.815-265.772s134.65-77.914 134.65-120.474c0-63.781-81.517-95.65-155.871-95.65-102.738 0-159.431 14.133-244.476 49.648l-31.869 14.133-35.472-219.652c60.178-28.309 170.122-49.648 286.993-53.133 272.86 0 446.467 131.165 450.070 333.038-7.088 113.429-74.429 198.431-223.212 269.257zM2985.408 933.487h-198.431c-60.178 0-109.826-17.736-134.65-81.517l-386.289-892.934h272.86c0 0 42.56 120.474 53.133 145.298 28.309 0 294.081 0 329.553 0 7.088-35.472 31.869-145.298 31.869-145.298h240.991l-209.079 974.451zM2666.503 306.325c21.221 56.693 102.738 272.86 102.738 272.86 0-3.603 21.221 56.693 35.472 92.090l17.736-85.002c0 0 49.648-233.903 60.178-279.948 0 0-216.167 0-216.167 0zM912.547 933.487l-251.521-666.119-28.309 134.65-92.090 450.070c-14.133 60.178-60.178 81.517-116.914 81.517h-414.555l-3.603-21.221c102.738-24.824 191.343-60.178 272.86-106.341l226.815-846.889h272.86l407.51 974.451h-272.86z" />
<glyph unicode="&#xe970;" glyph-name="checkbox-checked" d="M896 960h-768c-70.4 0-128-57.6-128-128v-768c0-70.4 57.6-128 128-128h768c70.4 0 128 57.6 128 128v768c0 70.4-57.6 128-128 128zM448 165.504l-237.248 237.248 90.496 90.496 146.752-146.752 306.752 306.752 90.496-90.496-397.248-397.248z" />
<glyph unicode="&#xe971;" glyph-name="checkbox-unchecked" d="M896 960h-768c-70.4 0-128-57.6-128-128v-768c0-70.4 57.6-128 128-128h768c70.4 0 128 57.6 128 128v768c0 70.4-57.6 128-128 128zM896 64h-768v768h768v-768z" />
<glyph unicode="&#xe972;" glyph-name="checkmark1" d="M983.872 638.592l-522.56-515.616c-25.984-25.632-62.080-35.072-95.616-28.384-15.648-0.832-29.792 3.168-39.68 12.928l-312.864 308.672c-24.704 24.384-14.432 73.984 22.912 110.784 37.344 36.864 87.648 46.976 112.32 22.656l223.36-220.416 462.848 456.608c41.216 40.672 108.064 40.672 149.312 0s41.248-106.624 0-147.296z" />
<glyph unicode="&#xe973;" glyph-name="checkmark2-circle-punched" d="M1024 448c0-282.784-229.216-512-512-512s-512 229.216-512 512c0 282.784 229.216 512 512 512s512-229.216 512-512zM924.608 448c0 228.064-184.608 412.608-412.608 412.608-228.064 0-412.608-184.608-412.608-412.608 0-228.064 184.608-412.608 412.608-412.608 228.064 0 412.608 184.608 412.608 412.608zM716.352 667.648l-288.608-288.608-124.992 124.992-92.672-92.672 217.664-217.76 381.376 381.376-92.736 92.672z" />
<glyph unicode="&#xe974;" glyph-name="checkmark2-punched" d="M397.44 42.304l-397.888 391.616 197.376 194.24 200.512-197.312 429.632 422.848 197.376-194.24-627.008-617.152zM107.904 433.92l289.536-284.992 518.656 510.464-89.024 87.616-429.632-422.848-200.512 197.312-89.024-87.616z" />
<glyph unicode="&#xe975;" glyph-name="checkmark2" d="M864 832l-480-480-224 224-160-160 384-384 640 640z" />
<glyph unicode="&#xe976;" glyph-name="chevron-toggle1" d="M174.080 652.8l266.24 266.24c0 0 10.24 10.24 10.24 10.24 10.24 10.24 30.72 20.48 51.2 20.48s40.96-10.24 51.2-20.48c0 0 10.24-10.24 10.24-10.24l266.24-266.24c30.72-30.72 30.72-71.68 0-102.4s-71.68-30.72-102.4 0l-225.28 225.28-225.28-225.28c-30.72-30.72-71.68-30.72-102.4 0s-30.72 71.68 0 102.4zM819.2 243.2l-266.24-266.24c0 0-10.24-10.24-10.24-10.24-10.24-10.24-30.72-20.48-51.2-20.48s-40.96 10.24-51.2 20.48c0 0-10.24 10.24-10.24 10.24l-266.24 266.24c-30.72 30.72-30.72 71.68 0 102.4s71.68 30.72 102.4 0l225.28-225.28 225.28 225.28c30.72 30.72 71.68 30.72 102.4 0s30.72-71.68 0-102.4z" />
<glyph unicode="&#xe977;" glyph-name="chevron-toggle2" d="M288 384l-96-96 320-320 320 320-96 96-224-224zM736 512l96 96-320 320-320-320 96-96 224 224z" />
<glyph unicode="&#xe978;" glyph-name="chevron1-down" d="M991.392 578.912l-386.848-399.104c-4.256-6.944-9.056-13.568-14.88-19.616-21.6-22.176-49.952-32.928-78.176-32.384-28.256-0.544-56.608 10.208-78.112 32.384-5.856 6.048-10.656 12.672-14.88 19.616l-386.848 399.104c-42.016 43.36-42.016 113.664 0 157.024s110.176 43.36 152.16 0l327.712-338.080 327.712 338.080c42.016 43.36 110.112 43.36 152.192 0 42.016-43.36 42.016-113.664 0-157.024z" />
<glyph unicode="&#xe979;" glyph-name="chevron1-left" d="M642.912-31.392l-399.104 386.848c-6.944 4.256-13.568 9.056-19.616 14.88-22.176 21.6-32.928 49.952-32.384 78.176-0.544 28.256 10.208 56.608 32.384 78.112 6.048 5.856 12.672 10.656 19.616 14.88l399.104 386.848c43.36 42.016 113.664 42.016 157.024 0s43.36-110.176 0-152.16l-338.080-327.712 338.080-327.712c43.36-42.016 43.36-110.112 0-152.192-43.36-42.016-113.664-42.016-157.024 0z" />
<glyph unicode="&#xe97a;" glyph-name="chevron1-right" d="M382.336 929.504l401.632-379.296c6.944-4.128 13.664-8.832 19.712-14.592 22.304-21.12 33.152-48.992 32.608-76.64 0.544-27.68-10.272-55.52-32.608-76.576-6.048-5.76-12.768-10.464-19.712-14.624l-401.632-379.264c-43.616-41.216-114.336-41.216-157.984 0-43.648 41.184-43.648 108 0 149.152l340.192 321.312-340.192 321.312c-43.648 41.216-43.648 108 0 149.216s114.4 41.216 157.984 0z" />
<glyph unicode="&#xe97b;" glyph-name="chevron1-up" d="M31.328 317.088l386.848 399.104c4.256 6.944 9.056 13.568 14.88 19.616 21.6 22.176 49.952 32.928 78.176 32.384 28.256 0.544 56.608-10.208 78.112-32.384 5.856-6.048 10.656-12.672 14.88-19.616l386.848-399.104c42.016-43.36 42.016-113.664 0-157.024-41.984-43.36-110.176-43.36-152.16 0l-327.712 338.080-327.712-338.080c-42.016-43.36-110.112-43.36-152.192 0-42.016 43.36-42.016 113.664 0 157.024z" />
<glyph unicode="&#xe97c;" glyph-name="chevron2-down" d="M508.928 435.552l351.232 351.232 163.84-168.96-506.88-505.856-517.12 518.144 157.696 159.744 351.232-354.304z" />
<glyph unicode="&#xe97d;" glyph-name="chevron2-left" d="M499.552 444.928l351.232 351.232-168.96 163.84-505.856-506.88 518.144-517.12 159.744 157.696-354.304 351.232z" />
<glyph unicode="&#xe97e;" glyph-name="chevron2-right" d="M524.448 444.928l-351.232 351.232 168.96 163.84 505.856-506.88-518.144-517.12-159.744 157.696 354.304 351.232z" />
<glyph unicode="&#xe97f;" glyph-name="chevron2-up" d="M515.072 460.448l-351.232-351.232-163.84 168.96 506.88 505.856 517.12-518.144-157.696-159.744-351.232 354.304z" />
<glyph unicode="&#xe980;" glyph-name="chevron3-down-circle-punch" d="M1024 448c0 282.784-229.216 512-512 512s-512-229.216-512-512c0-282.784 229.216-512 512-512s512 229.216 512 512zM61.44 448c0 248.832 201.728 450.56 450.56 450.56s450.56-201.728 450.56-450.56c0-248.832-201.728-450.56-450.56-450.56s-450.56 201.728-450.56 450.56c0 0 0 0 0 0zM535.488 273.248l212.576 216.736c5.792 6.272 9.376 14.688 9.376 23.936 0 9.856-4.064 18.784-10.592 25.216-6.144 6.72-14.976 10.944-24.768 10.944-9.12 0-17.408-3.648-23.456-9.568l-186.624-190.464-186.656 190.464c-6.048 5.92-14.304 9.568-23.424 9.568-9.792 0-18.592-4.192-24.736-10.912-6.56-6.432-10.624-15.36-10.624-25.248 0-9.248 3.552-17.664 9.408-23.968l212.576-216.736c5.376-5.536 13.248-9.28 22.048-9.568h2.784c8.384 0.128 16.352 3.744 22.144 9.568z" />
<glyph unicode="&#xe981;" glyph-name="chevron3-left-circle-punch" d="M512-64c282.784 0 512 229.216 512 512s-229.216 512-512 512c-282.784 0-512-229.216-512-512s229.216-512 512-512zM512 898.56c248.832 0 450.56-201.728 450.56-450.56s-201.728-450.56-450.56-450.56c-248.832 0-450.56 201.728-450.56 450.56s201.728 450.56 450.56 450.56c0 0 0 0 0 0zM337.248 424.512l216.736-212.576c6.272-5.792 14.688-9.376 23.936-9.376 9.856 0 18.784 4.064 25.216 10.592 6.72 6.144 10.944 14.976 10.944 24.768 0 9.12-3.648 17.408-9.568 23.456l-190.464 186.624 190.464 186.656c5.92 6.048 9.568 14.304 9.568 23.424 0 9.792-4.192 18.592-10.912 24.736-6.432 6.56-15.36 10.624-25.248 10.624-9.248 0-17.664-3.552-23.968-9.408l-216.736-212.576c-5.536-5.376-9.28-13.248-9.568-22.048v-2.784c0.128-8.384 3.744-16.352 9.568-22.144z" />
<glyph unicode="&#xe982;" glyph-name="chevron3-right-circle-punch" d="M512-64c-282.784 0-512 229.216-512 512s229.216 512 512 512c282.784 0 512-229.216 512-512s-229.216-512-512-512zM512 898.56c-248.832 0-450.56-201.728-450.56-450.56s201.728-450.56 450.56-450.56c248.832 0 450.56 201.728 450.56 450.56s-201.728 450.56-450.56 450.56c0 0 0 0 0 0zM686.752 424.512l-216.736-212.576c-6.272-5.792-14.688-9.376-23.936-9.376-9.856 0-18.784 4.064-25.216 10.592-6.72 6.144-10.944 14.976-10.944 24.768 0 9.12 3.648 17.408 9.568 23.456l190.464 186.624-190.464 186.656c-5.92 6.048-9.568 14.304-9.568 23.424 0 9.792 4.192 18.592 10.912 24.736 6.432 6.56 15.36 10.624 25.248 10.624 9.248 0 17.664-3.552 23.968-9.408l216.736-212.576c5.536-5.376 9.28-13.248 9.568-22.048v-2.784c-0.128-8.384-3.744-16.352-9.568-22.144z" />
<glyph unicode="&#xe983;" glyph-name="chevron3-up-circle-punch" d="M1024 448c0-282.784-229.216-512-512-512s-512 229.216-512 512c0 282.784 229.216 512 512 512s512-229.216 512-512zM61.44 448c0-248.832 201.728-450.56 450.56-450.56s450.56 201.728 450.56 450.56c0 248.832-201.728 450.56-450.56 450.56s-450.56-201.728-450.56-450.56c0 0 0 0 0 0zM535.488 622.752l212.576-216.736c5.792-6.272 9.376-14.688 9.376-23.936 0-9.856-4.064-18.784-10.592-25.216-6.144-6.72-14.976-10.944-24.768-10.944-9.12 0-17.408 3.648-23.456 9.568l-186.624 190.464-186.656-190.464c-6.048-5.92-14.304-9.568-23.424-9.568-9.792 0-18.592 4.192-24.736 10.912-6.56 6.432-10.624 15.36-10.624 25.248 0 9.248 3.552 17.664 9.408 23.968l212.576 216.736c5.376 5.536 13.248 9.28 22.048 9.568h2.784c8.384-0.128 16.352-3.744 22.144-9.568z" />
<glyph unicode="&#xe984;" glyph-name="chevron4-down-circle-punched" d="M1024 448c0 282.752-229.248 512-512 512s-512-229.248-512-512 229.248-512 512-512 512 229.248 512 512zM96 448c0 229.76 186.24 416 416 416s416-186.24 416-416-186.24-416-416-416-416 186.24-416 416zM317.248 605.248l-90.496-90.496 285.248-285.248 285.248 285.248-90.496 90.496-194.752-194.752z" />
<glyph unicode="&#xe985;" glyph-name="chevron4-left-circle-punched" d="M512-64c282.752 0 512 229.248 512 512s-229.248 512-512 512-512-229.248-512-512 229.248-512 512-512zM512 864c229.76 0 416-186.24 416-416s-186.24-416-416-416-416 186.24-416 416 186.24 416 416 416zM669.248 642.752l-90.496 90.496-285.248-285.248 285.248-285.248 90.496 90.496-194.752 194.752z" />
<glyph unicode="&#xe986;" glyph-name="chevron4-right-circle-punched" d="M512 960c-282.752 0-512-229.248-512-512s229.248-512 512-512 512 229.248 512 512-229.248 512-512 512zM512 32c-229.76 0-416 186.24-416 416s186.24 416 416 416 416-186.24 416-416-186.24-416-416-416zM354.752 253.248l90.496-90.496 285.248 285.248-285.248 285.248-90.496-90.496 194.752-194.752z" />
<glyph unicode="&#xe987;" glyph-name="chevron4-up-circle-punched" d="M0 448c0-282.752 229.248-512 512-512s512 229.248 512 512-229.248 512-512 512-512-229.248-512-512zM928 448c0-229.76-186.24-416-416-416s-416 186.24-416 416 186.24 416 416 416 416-186.24 416-416zM706.752 290.752l90.496 90.496-285.248 285.248-285.248-285.248 90.496-90.496 194.752 194.752z" />
<glyph unicode="&#xe988;" glyph-name="disabled" d="M874.048 810.048c-96.704 96.704-225.28 149.952-362.048 149.952s-265.344-53.248-362.048-149.952c-96.704-96.704-149.952-225.28-149.952-362.048s53.248-265.344 149.952-362.048c96.704-96.704 225.28-149.952 362.048-149.952s265.344 53.248 362.048 149.952c96.704 96.704 149.952 225.28 149.952 362.048s-53.248 265.344-149.952 362.048zM896 448c0-82.816-26.368-159.616-71.104-222.4l-535.296 535.296c62.784 44.736 139.584 71.104 222.4 71.104 211.712 0 384-172.288 384-384zM128 448c0 82.816 26.368 159.616 71.104 222.4l535.296-535.296c-62.784-44.736-139.584-71.104-222.4-71.104-211.712 0-384 172.288-384 384z" />
<glyph unicode="&#xe989;" glyph-name="doc-blank" d="M917.824 730.944c-22.208 30.272-53.184 65.728-87.168 99.712s-69.44 64.96-99.712 87.168c-51.584 37.824-76.608 42.176-90.944 42.176h-496c-44.096 0-80-35.904-80-80v-864c0-44.096 35.904-80 80-80h736c44.096 0 80 35.904 80 80v624c0 14.336-4.352 39.36-42.176 90.944zM785.344 785.344c30.72-30.72 54.784-58.368 72.576-81.344h-153.984v153.92c22.976-17.792 50.688-41.856 81.344-72.576zM896 16c0-8.704-7.296-16-16-16h-736c-8.64 0-16 7.296-16 16v864c0 8.64 7.36 16 16 16 0 0 495.936 0 496 0v-224c0-17.664 14.336-32 32-32h224v-624z" />
<glyph unicode="&#xe98a;" glyph-name="doc-excel" d="M743.040 576h-135.296l-95.744-141.056-95.744 141.056h-135.296l162.176-242.432-182.976-269.568h251.84v91.584h-50.176l50.176 75.008 111.424-166.592h140.416l-182.976 269.568 162.176 242.432zM917.824 730.944c-22.208 30.272-53.184 65.728-87.168 99.712s-69.44 64.96-99.712 87.168c-51.584 37.824-76.608 42.176-90.944 42.176h-496c-44.096 0-80-35.904-80-80v-864c0-44.096 35.904-80 80-80h736c44.096 0 80 35.904 80 80v624c0 14.336-4.352 39.36-42.176 90.944v0zM785.344 785.344c30.72-30.72 54.784-58.368 72.576-81.344h-153.984v153.92c22.976-17.792 50.688-41.856 81.344-72.576v0zM896 16c0-8.704-7.296-16-16-16h-736c-8.64 0-16 7.296-16 16v864c0 8.64 7.36 16 16 16 0 0 495.936 0 496 0v-224c0-17.664 14.336-32 32-32h224v-624z" />
<glyph unicode="&#xe98b;" glyph-name="doc-filled" d="M735.168 163.904h-448.896v74.56h448.896v-74.56zM735.104 301.632h-448.832v74.56h448.832v-74.56zM735.104 439.168h-448.832v74.56h448.832v-74.56zM623.744 860.608v-213.184h229.376v-612.032h-682.24v825.216h452.864zM690.496 960h-626.496v-1024h896v773.568l-269.504 250.432z" />
<glyph unicode="&#xe98c;" glyph-name="doc-pdf" d="M841.984 370.496c-13.632 13.44-43.904 20.544-89.984 21.184-31.168 0.32-68.672-2.432-108.16-7.936-17.664 10.176-35.904 21.312-50.176 34.688-38.464 35.904-70.592 85.76-90.56 140.608 1.28 5.12 2.432 9.6 3.456 14.208 0 0 21.696 123.072 15.936 164.672-0.768 5.696-1.28 7.36-2.816 11.776l-1.856 4.864c-5.888 13.568-17.472 27.968-35.584 27.2l-10.944 0.32c-20.224 0-36.672-10.304-40.96-25.792-13.12-48.448 0.448-120.896 24.96-214.72l-6.272-15.296c-17.6-42.88-39.616-86.080-59.072-124.16l-2.56-4.928c-20.48-40.064-39.040-74.048-55.872-102.848l-17.344-9.216c-1.28-0.64-31.040-16.448-38.016-20.672-59.264-35.392-98.496-75.52-105.024-107.392-2.048-10.176-0.512-23.168 9.984-29.184l16.832-8.448c7.296-3.648 14.976-5.504 22.848-5.504 42.176 0 91.2 52.544 158.72 170.368 77.952 25.344 166.656 46.464 244.416 58.112 59.264-33.344 132.16-56.512 178.112-56.512 8.192 0 15.232 0.768 20.928 2.304 8.832 2.368 16.256 7.36 20.8 14.208 8.896 13.44 10.752 31.936 8.32 50.88-0.704 5.632-5.184 12.544-10.048 17.344zM211.648 145.92c7.68 21.056 38.144 62.656 83.2 99.584 2.816 2.304 9.792 8.832 16.192 14.912-47.104-75.136-78.656-105.088-99.392-114.432zM478.464 760.32c13.568 0 21.312-34.176 21.952-66.24s-6.848-54.592-16.128-71.232c-7.68 24.64-11.456 63.488-11.456 88.896 0 0-0.576 48.576 5.632 48.576v0zM398.848 322.496c9.472 16.896 19.264 34.752 29.312 53.696 24.512 46.336 39.936 82.56 51.456 112.32 22.912-41.664 51.456-77.12 84.992-105.536 4.16-3.52 8.64-7.104 13.248-10.624-68.224-13.504-127.168-29.888-179.072-49.856v0zM828.928 326.336c-4.16-2.624-16.064-4.096-23.68-4.096-24.704 0-55.296 11.264-98.112 29.696 16.448 1.216 31.552 1.856 45.12 1.856 24.768 0 32.128 0.128 56.32-6.080s24.512-18.752 20.352-21.312v0zM917.824 730.944c-22.208 30.272-53.184 65.728-87.168 99.712s-69.44 64.96-99.712 87.168c-51.584 37.824-76.608 42.176-90.944 42.176h-496c-44.096 0-80-35.904-80-80v-864c0-44.096 35.904-80 80-80h736c44.096 0 80 35.904 80 80v624c0 14.336-4.352 39.36-42.176 90.944v0zM785.344 785.344c30.72-30.72 54.784-58.368 72.576-81.344h-153.984v153.92c22.976-17.792 50.688-41.856 81.344-72.576v0zM896 16c0-8.704-7.296-16-16-16h-736c-8.64 0-16 7.296-16 16v864c0 8.64 7.36 16 16 16 0 0 495.936 0 496 0v-224c0-17.664 14.336-32 32-32h224v-624z" />
<glyph unicode="&#xe98d;" glyph-name="doc-word" d="M639.808 484.096h44.224l-51.008-226.176-66.304 318.016h-106.56l-77.12-318.016-57.792 318.016h-111.424l113.088-511.872h108.864l76.288 302.72 68.224-302.72h100.352l129.6 511.872h-170.432v-91.84zM917.824 730.944c-22.208 30.272-53.184 65.728-87.168 99.712s-69.44 64.96-99.712 87.168c-51.584 37.824-76.608 42.176-90.944 42.176h-496c-44.096 0-80-35.904-80-80v-864c0-44.096 35.904-80 80-80h736c44.096 0 80 35.904 80 80v624c0 14.336-4.352 39.36-42.176 90.944v0zM785.344 785.344c30.72-30.72 54.784-58.368 72.576-81.344h-153.984v153.92c22.976-17.792 50.688-41.856 81.344-72.576v0zM896 16c0-8.704-7.296-16-16-16h-736c-8.64 0-16 7.296-16 16v864c0 8.64 7.36 16 16 16 0 0 495.936 0 496 0v-224c0-17.664 14.336-32 32-32h224v-624z" />
<glyph unicode="&#xe98e;" glyph-name="download" d="M682.656 490.656h213.344l-384-426.656-384 426.656h213.344v469.344h341.344v-469.344zM810.656 149.344v-128h-597.344v128h-85.344v-213.344h768v213.344h-85.344z" />
<glyph unicode="&#xe98f;" glyph-name="edit" d="M306.688 19.2v0l-306.688-53.056 61.888 282.816 244.8-229.696zM787.808 929.888l-109.856-103.072 244.8-229.632 109.856 103.072-244.8 229.632zM116.768 300.32l244.8-229.632 506.304 474.976-244.8 229.632-506.304-474.976z" />
<glyph unicode="&#xe990;" glyph-name="email1-circle" d="M512 959.136c-282.752 0-512-229.248-512-512s229.248-512 512-512 512 229.248 512 512-229.248 512-512 512zM810.24 661.344l-298.24-241.76-298.272 241.76h596.512zM810.656 234.656h-597.344v362.88l298.656-242.048 298.656 242.016v-362.848z" />
<glyph unicode="&#xe991;" glyph-name="email1-punched" d="M0 832v-768h1024v768h-1024zM918.112 746.656l-406.112-329.088-406.112 329.088h812.192zM85.344 149.344v504.192l426.656-345.76 426.656 345.76v-504.192h-853.344z" />
<glyph unicode="&#xe992;" glyph-name="email1" d="M512 417.568l-511.36 414.432h1022.72l-511.36-414.432zM512 307.744l-512 414.944v-658.688h1024v658.688l-512-414.944z" />
<glyph unicode="&#xe993;" glyph-name="email2-circle" d="M512 960c-282.752 0-512-229.248-512-512s229.248-512 512-512 512 229.248 512 512-229.248 512-512 512zM256 704h512c9.152 0 17.984-1.984 26.176-5.632l-282.176-329.152-282.176 329.152c8.128 3.712 17.024 5.632 26.176 5.632zM192 256v384c0 1.344 0.064 2.688 0.128 4.032l187.648-218.944-185.6-185.6c-1.472 5.312-2.176 10.88-2.176 16.512zM768 192h-512c-5.632 0-11.2 0.768-16.512 2.176l182.144 182.144 90.432-105.472 90.432 105.472 182.144-182.144c-5.312-1.472-10.88-2.176-16.512-2.176zM832 256c0-5.632-0.768-11.2-2.176-16.512l-185.6 185.6 187.648 218.944c0.064-1.344 0.128-2.688 0.128-4.032v-384z" />
<glyph unicode="&#xe994;" glyph-name="email2-punched" d="M0 832v-768h1024v768h-1024zM282.592 493.696l-197.248-243.712v403.552l197.248-159.84zM105.888 746.656h812.16l-406.048-329.088-406.112 329.088zM348.832 439.968l163.168-132.224 163.424 132.448 239.456-290.848h-801.248l235.232 290.656zM741.728 493.92l196.96 159.616v-398.848l-196.96 239.232z" />
<glyph unicode="&#xe995;" glyph-name="email2" d="M512 417.568l-511.36 414.432h1022.752l-511.392-414.432zM280.544 495.328l-280.544 227.36v-533.376l280.544 306.016zM743.456 495.328l280.544-306.016v533.376l-280.544-227.36zM677.024 441.504l-165.024-133.76-165.024 133.76-346.016-377.504h1022.112l-346.016 377.504z" />
<glyph unicode="&#xe996;" glyph-name="enlarge1" d="M1024 960h-416l160-160-192-192 96-96 192 192 160-160zM1024-64v416l-160-160-192 192-96-96 192-192-160-160zM0-64h416l-160 160 192 192-96 96-192-192-160 160zM0 960v-416l160 160 192-192 96 96-192 192 160 160z" />
<glyph unicode="&#xe997;" glyph-name="enlarge2" d="M1024 960v-416l-160 160-192-192-96 96 192 192-160 160zM448 288l-192-192 160-160h-416v416l160-160 192 192z" />
<glyph unicode="&#xe998;" glyph-name="exit1-circle-punched" d="M512 960c-282.752 0-512-229.248-512-512s229.248-512 512-512 512 229.248 512 512-229.248 512-512 512zM512 32c-229.76 0-416 186.24-416 416s186.24 416 416 416 416-186.24 416-416-186.24-416-416-416zM672 704l-160-160-160 160-96-96 160-160-160-160 96-96 160 160 160-160 96 96-160 160 160 160z" />
<glyph unicode="&#xe999;" glyph-name="exit1-circle" d="M512 960c-282.784 0-512-229.216-512-512s229.216-512 512-512c282.784 0 512 229.216 512 512s-229.216 512-512 512zM706.208 143.424l-191.712 191.648-191.712-191.712-102.912 103.072 191.648 191.648-191.712 191.712 103.072 102.912 191.648-191.552 191.552 191.648 103.072-102.976-191.648-191.648 191.648-191.648-102.912-103.072z" />
<glyph unicode="&#xe99a;" glyph-name="exit1" d="M844.064-63.264l-332.8 333.024-332.8-333.088-179.2 178.976 332.8 333.024-332.8 333.088 179.2 178.912 332.8-332.96 332.8 332.96 179.2-178.912-332.8-333.024 332.8-333.024z" />
<glyph unicode="&#xe99b;" glyph-name="exit2-circle" d="M512-64c-282.752 0-512 229.248-512 512s229.248 512 512 512c282.752 0 512-229.248 512-512s-229.248-512-512-512zM694.592 550.4c22.464 22.496 22.464 58.944 0 81.44s-58.944 22.464-81.408 0l-101.792-101.792-101.76 101.792c-22.496 22.464-58.944 22.464-81.44 0s-22.464-58.944 0-81.44l101.792-101.76-101.792-101.76c-22.464-22.496-22.464-58.944 0-81.44s58.944-22.464 81.44 0l101.76 101.76 101.792-101.76c22.464-22.464 58.944-22.464 81.408 0s22.464 58.944 0 81.44l-101.76 101.76 101.76 101.76z" />
<glyph unicode="&#xe99c;" glyph-name="favorite1-punched" d="M267.936 832c138.080-0.032 212.192-148.96 244.064-214.656 32 66.016 105.344 214.24 244.32 214.24 87.808 0 182.368-55.84 182.368-178.432 0-146.848-202.4-334.976-426.656-554.656-224.352 219.776-426.656 407.84-426.656 554.656 0 114.176 83.84 178.912 182.624 178.848zM268 917.344c-135.808 0-268-93.312-268-264.192 0-198.88 237.664-402.208 512-674.464 274.336 272.256 512 475.616 512 674.464 0 171.136-132.128 263.776-267.68 263.776-94.048 0-189.696-44.448-244.32-138.144-54.816 94.112-150.272 138.592-244 138.592z" />
<glyph unicode="&#xe99d;" glyph-name="favorite1" d="M512 778.752c-134.304 230.496-512 163.2-512-125.6 0-198.88 237.696-402.208 512-674.464 274.336 272.256 512 475.616 512 674.464 0 289.792-378.656 354.4-512 125.6z" />
<glyph unicode="&#xe99e;" glyph-name="favorite2-punched" d="M832 533.344c-105.952 0-192-85.984-192-192s86.048-192 192-192 192 85.984 192 192-86.048 192-192 192zM938.656 320h-85.344v-85.344h-42.656v85.344h-85.344v42.656h85.344v85.344h42.656v-85.344h85.344v-42.656zM660.192 124.032c-47.264-46.336-97.056-94.688-148.192-145.376-274.336 272.256-512 475.616-512 674.464 0 170.88 132.192 264.192 268 264.192 93.728 0 189.184-44.448 244-138.592 54.56 93.664 150.24 138.144 244.32 138.144 135.552 0 267.68-92.64 267.68-263.776 0-31.84-6.656-63.84-18.048-96.128-22.496 18.208-47.968 32.768-75.488 43.264 5.216 18.144 8.192 35.808 8.192 52.864 0 122.592-94.56 178.432-182.368 178.432-138.976 0-212.32-148.256-244.32-214.24-31.872 65.696-105.984 214.624-244.064 214.656-98.784 0.032-182.624-64.672-182.624-178.848 0-146.848 202.336-334.944 426.656-554.656l89.984 88.064c16.032-23.776 35.808-44.704 58.208-62.496z" />
<glyph unicode="&#xe99f;" glyph-name="favorite2" d="M832 533.344c-105.952 0-192-85.984-192-192s86.048-192 192-192 192 85.984 192 192-86.048 192-192 192zM938.656 320h-85.344v-85.344h-42.656v85.344h-85.344v42.656h85.344v85.344h42.656v-85.344h85.344v-42.656zM660.192 124.032c-47.264-46.336-97.056-94.688-148.192-145.376-274.336 272.256-512 475.616-512 674.464 0 288.8 377.696 356.096 512 125.6 133.344 228.768 512 164.192 512-125.6 0-31.84-6.656-63.84-18.048-96.128-47.616 38.496-108.128 61.664-173.952 61.664-152.928 0-277.344-124.416-277.344-277.344 0-88.032 41.376-166.432 105.504-217.312z" />
<glyph unicode="&#xe9a0;" glyph-name="home1" d="M1024 369.536l-512 397.44-512-397.44v162.048l512 397.44 512-397.44zM896 384v-384h-256v256h-256v-256h-256v384l384 288z" />
<glyph unicode="&#xe9a1;" glyph-name="home2" d="M512 928l-512-512 96-96 96 96v-416h256v192h128v-192h256v416l96-96 96 96-512 512zM512 512c-35.328 0-64 28.672-64 64s28.672 64 64 64c35.328 0 64-28.672 64-64s-28.672-64-64-64z" />
<glyph unicode="&#xe9a2;" glyph-name="map-compass" d="M512 960c-282.752 0-512-229.248-512-512s229.248-512 512-512 512 229.248 512 512-229.248 512-512 512zM96 448c0 229.76 186.24 416 416 416 109.568 0 209.216-42.368 283.52-111.616l-411.52-176.384-176.384-411.52c-69.248 74.304-111.616 173.952-111.616 283.52zM585.152 374.848l-256.064-109.76 109.76 256.064 146.304-146.304zM512 32c-109.568 0-209.216 42.368-283.52 111.616l411.52 176.384 176.384 411.52c69.248-74.304 111.616-173.952 111.616-283.52 0-229.76-186.24-416-416-416z" />
<glyph unicode="&#xe9a3;" glyph-name="map-marker1" d="M512 960c-176.704 0-320-143.296-320-320 0-320 320-704 320-704s320 384 320 704c0 176.704-143.296 320-320 320zM512 443.968c-108.224 0-196.032 87.744-196.032 196.032s87.744 196.032 196.032 196.032 196.032-87.744 196.032-196.032-87.744-196.032-196.032-196.032zM388.032 640c0 68.48 55.488 124.032 124.032 124.032s124.032-55.488 124.032-124.032c0-68.48-55.488-124.032-124.032-124.032s-124.032 55.488-124.032 124.032z" />
<glyph unicode="&#xe9a4;" glyph-name="map-marker2" d="M512 960c-176.704 0-320-143.296-320-320 0-320 320-704 320-704s320 384 320 704c0 176.704-143.296 320-320 320zM512 448c-106.048 0-192 85.952-192 192s85.952 192 192 192 192-85.952 192-192-85.952-192-192-192z" />
<glyph unicode="&#xe9a5;" glyph-name="map-marker3" d="M519.648 960.256c-203.52 0-368.48-164.48-368.48-367.424 0-171.36 262.72-529.632 344.48-637.056 15.072-19.744 32.928-19.744 47.968 0 81.76 107.392 344.48 465.696 344.48 637.056 0 202.944-164.992 367.424-368.448 367.424zM518.368 419.264c-112.384 0-203.424 87.168-203.424 194.624s91.072 194.624 203.424 194.624c112.352 0 203.392-87.168 203.392-194.624s-91.072-194.624-203.392-194.624z" />
<glyph unicode="&#xe9a6;" glyph-name="map1" d="M0 768l320 128v-768l-320-128zM384 928l320-192v-736l-320 160zM768 736l256 192v-768l-256-192z" />
<glyph unicode="&#xe9a7;" glyph-name="map2" d="M672 768l-320 128-352-128v-768l352 128 320-128 352 128v768l-352-128zM384 814.272l256-102.4v-630.144l-256 102.4v630.144zM64 723.2l256 93.12v-631.808l-256-93.056v631.808zM960 172.8l-256-93.12v631.808l256 93.12v-631.808z" />
<glyph unicode="&#xe9a8;" glyph-name="menu-toggle-down" d="M0 680.736h651.648v-139.648h-651.648v139.648zM0 494.56h651.648v-139.648h-651.648v139.648zM0 308.352h651.648v-139.648h-651.648v139.648zM721.44 494.56l139.648-139.648 139.648 139.648z" />
<glyph unicode="&#xe9a9;" glyph-name="menu-toggle-up" d="M0 680.736h651.648v-139.648h-651.648v139.648zM0 494.56h651.648v-139.648h-651.648v139.648zM0 308.352h651.648v-139.648h-651.648v139.648zM721.44 354.912l139.648 139.648 139.648-139.648z" />
<glyph unicode="&#xe9aa;" glyph-name="menu-toggle" d="M0 680.736h651.648v-139.648h-651.648v139.648zM0 494.56h651.648v-139.648h-651.648v139.648zM0 308.352h651.648v-139.648h-651.648v139.648zM721.44 401.44l139.648-139.648 139.648 139.648zM1000.736 448l-139.648 139.648-139.648-139.648z" />
<glyph unicode="&#xe9ab;" glyph-name="menu1" d="M64 768h896v-192h-896zM64 512h896v-192h-896zM64 256h896v-192h-896z" />
<glyph unicode="&#xe9ac;" glyph-name="menu2" d="M0 868.096h1024.352v-152.512h-1024.352v152.512zM0 519.936h1024.352v-152.512h-1024.352v152.512zM0 180.384h1024.352v-152.512h-1024.352v152.512z" />
<glyph unicode="&#xe9ad;" glyph-name="menu3" d="M0 492.992h1030.048v-104.96h-1030.048v104.96zM0 204.352h1030.048v-104.96h-1030.048v104.96zM0 796.608h1030.048v-104.96h-1030.048v104.96z" />
<glyph unicode="&#xe9ae;" glyph-name="menu4" d="M974.016 398.208h-922.752c-28.288 0-51.264 22.304-51.264 49.792s22.976 49.824 51.264 49.824h922.752c28.16 0 51.264-22.304 51.264-49.824s-23.104-49.792-51.264-49.792zM974.016 697.024h-922.752c-28.288 0-51.264 22.304-51.264 49.792s22.976 49.824 51.264 49.824h922.752c28.16 0 51.264-22.368 51.264-49.824s-23.104-49.792-51.264-49.792zM51.264 199.008h922.752c28.16 0 51.264-22.432 51.264-49.824s-23.104-49.792-51.264-49.792h-922.752c-28.288 0-51.264 22.4-51.264 49.792s22.976 49.824 51.264 49.824z" />
<glyph unicode="&#xe9af;" glyph-name="menu5" d="M181.44 38.4h-181.44v169.024h181.44v-169.024zM181.44 532.544h-181.44v-169.088h181.44v169.088zM181.44 857.6h-181.44v-169.024h181.44v169.024zM293.28 857.6v-169.024h730.72v169.024h-730.72zM293.28 363.456h730.72v169.088h-730.72v-169.088zM293.28 38.4h730.72v169.024h-730.72v-169.024z" />
<glyph unicode="&#xe9b0;" glyph-name="menu6" d="M0 960h256v-256h-256zM384 896h640v-128h-640zM0 576h256v-256h-256zM384 512h640v-128h-640zM0 192h256v-256h-256zM384 128h640v-128h-640z" />
<glyph unicode="&#xe9b1;" glyph-name="menu7" d="M974.464 101.152h-677.632c-27.392 0-49.536 22.208-49.536 49.536v39.456c0 27.392 22.176 49.536 49.536 49.536h677.632c27.36 0 49.536-22.176 49.536-49.536v-39.456c0-27.36-22.208-49.536-49.536-49.536zM974.464 378.24h-677.632c-27.392 0-49.536 22.208-49.536 49.536v40.384c0 27.392 22.176 49.536 49.536 49.536h677.632c27.36 0 49.536-22.176 49.536-49.536v-40.384c0-27.36-22.208-49.536-49.536-49.536zM974.464 656.288h-677.632c-27.392 0-49.536 22.176-49.536 49.536v39.456c0 27.36 22.176 49.536 49.536 49.536h677.632c27.36 0 49.536-22.208 49.536-49.536v-39.456c0-27.392-22.208-49.536-49.536-49.536zM91.072 101.152h-41.536c-27.36 0-49.536 22.208-49.536 49.536v39.456c0 27.392 22.208 49.536 49.536 49.536h41.536c27.36 0 49.536-22.176 49.536-49.536v-39.456c0-27.36-22.208-49.536-49.536-49.536zM91.072 378.24h-41.536c-27.36 0-49.536 22.208-49.536 49.536v40.384c0 27.392 22.208 49.536 49.536 49.536h41.536c27.36 0 49.536-22.176 49.536-49.536v-40.384c0-27.36-22.208-49.536-49.536-49.536zM91.072 656.288h-41.536c-27.36 0-49.536 22.176-49.536 49.536v39.456c0 27.36 22.208 49.536 49.536 49.536h41.536c27.36 0 49.536-22.208 49.536-49.536v-39.456c0-27.392-22.208-49.536-49.536-49.536z" />
<glyph unicode="&#xe9b2;" glyph-name="minus" d="M0 544v-192c0-17.664 14.336-32 32-32h960c17.664 0 32 14.336 32 32v192c0 17.664-14.336 32-32 32h-960c-17.664 0-32-14.336-32-32z" />
<glyph unicode="&#xe9b3;" glyph-name="more-photos" d="M805.632 590.72l-85.408 277.408-720.256-217.376 165.696-538.4 101.6 30.656v-115.104h752.96v562.816h-214.624zM214.304 202.656l-123.104 399.872 580.384 175.232 57.568-187.072h-461.888v-372.032l-52.992-16zM947.136 100.288h-606.752v418.048h606.752v-418.048zM436.96 405.984c0 30.496 24.96 55.232 55.808 55.232 30.784 0 55.744-24.736 55.744-55.232 0-30.528-24.96-55.264-55.744-55.264-30.848 0-55.808 24.736-55.808 55.264zM720 404.192l-92.544-130.112-50.24 51.296-141.856-159.584h443.392l-158.752 238.368z" />
<glyph unicode="&#xe9b4;" glyph-name="os-android" d="M896 576c-35.2 0-64-28.8-64-64v-256c0-35.2 28.8-64 64-64s64 28.8 64 64v256c0 35.2-28.8 64-64 64zM128 576c-35.2 0-64-28.8-64-64v-256c0-35.2 28.8-64 64-64s64 28.8 64 64v256c0 35.2-28.8 64-64 64zM224 224c0-52.992 43.008-96 96-96v0-128c0-35.2 28.8-64 64-64s64 28.8 64 64v128h128v-128c0-35.2 28.8-64 64-64s64 28.8 64 64v128c52.992 0 96 43.008 96 96v352h-576v-352zM798.208 640c-9.728 87.872-59.008 163.776-129.6 209.664l32 64.064c7.872 15.808 1.472 35.008-14.336 42.944s-35.008 1.472-42.944-14.336l-32.128-64.256-8.32 3.328c-28.544 9.472-59.136 14.656-90.88 14.656s-62.336-5.184-90.88-14.656l-8.32-3.328-32.128 64.256c-7.872 15.808-27.136 22.208-42.944 14.336s-22.208-27.136-14.336-42.944l32-64.064c-70.592-45.824-119.872-121.792-129.6-209.664v-32h574.208v32h-1.792zM416 704c-17.664 0-32 14.336-32 32s14.272 31.936 31.936 32c0 0 0.064 0 0.064 0s0.064 0 0.064 0c17.664-0.064 31.936-14.336 31.936-32s-14.336-32-32-32zM608 704c-17.664 0-32 14.336-32 32s14.272 31.936 31.936 32c0 0 0.064 0 0.064 0s0.064 0 0.128 0c17.664-0.064 31.936-14.336 31.936-32s-14.336-32-32-32z" />
<glyph unicode="&#xe9b5;" glyph-name="os-appleinc" d="M791.488 415.936c-1.28 129.664 105.728 191.872 110.528 194.944-60.16 88-153.856 100.096-187.264 101.44-79.744 8.064-155.584-46.976-196.096-46.976-40.384 0-102.848 45.76-168.96 44.544-86.912-1.28-167.040-50.56-211.84-128.384-90.304-156.672-23.104-388.864 64.896-515.904 43.008-62.208 94.272-132.096 161.6-129.6 64.832 2.56 89.344 41.984 167.744 41.984s100.416-41.984 169.024-40.64c69.76 1.28 113.984 63.424 156.672 125.824 49.408 72.192 69.696 142.016 70.912 145.6-1.536 0.704-136.064 52.224-137.408 207.104zM662.592 796.48c35.712 43.328 59.84 103.488 53.248 163.52-51.456-2.112-113.856-34.304-150.784-77.568-33.152-38.4-62.144-99.648-54.4-158.464 57.472-4.48 116.16 29.184 151.872 72.448z" />
<glyph unicode="&#xe9b6;" glyph-name="os-linux" d="M567.68 223.104c-81.92-38.144-158.144-37.696-209.344-34.048-61.056 4.416-110.144 21.12-131.712 35.712-13.312 9.024-31.36 5.504-40.384-7.808s-5.504-31.36 7.808-40.384c34.688-23.488 96.064-40.96 160.192-45.568 10.88-0.768 22.784-1.28 35.648-1.28 55.808 0 126.656 5.312 202.432 40.576 14.592 6.784 20.864 24.064 14.080 38.656s-24.064 20.864-38.656 14.080zM890.944 266.176c2.816 252.672 28.736 730.176-454.976 691.584-477.632-38.464-350.976-542.976-358.080-711.936-6.336-89.408-35.968-198.656-77.888-309.824h129.088c13.248 47.104 23.040 93.696 27.2 138.176 7.808-5.44 16.128-10.688 25.024-15.68 14.464-8.512 26.88-19.84 40.064-31.808 30.72-28.032 65.6-59.776 133.696-63.744 4.544-0.256 9.152-0.384 13.696-0.384 68.928 0 116.032 30.144 153.856 54.4 18.112 11.584 33.792 21.632 48.576 26.432 41.92 13.12 78.528 34.304 105.92 61.248 4.288 4.224 8.256 8.512 11.968 12.928 15.232-55.872 36.096-118.784 59.264-181.504h275.648c-66.176 102.208-134.464 202.368-133.056 330.176zM124.096 403.648c0 0 0 0 0 0.064-4.736 82.432 34.688 151.808 88.128 154.944s100.544-61.248 105.28-143.68c0 0 0 0 0-0.064 0.256-4.416 0.384-8.832 0.384-13.184-16.896-4.224-32.192-10.432-45.888-17.6-0.064 0.64-0.064 1.216-0.128 1.856 0 0 0 0 0 0-4.544 46.784-29.568 82.176-55.872 78.976s-43.904-43.776-39.296-90.56c0 0 0 0 0 0 1.984-20.416 7.872-38.656 16.064-52.416-2.048-1.6-7.808-5.824-14.4-10.624-4.992-3.648-11.008-8.064-18.304-13.44-19.904 26.112-33.536 63.552-35.968 105.92zM665.28 199.808c-1.92-43.584-58.88-84.608-111.552-101.056l-0.32-0.128c-21.888-7.104-41.408-19.584-62.080-32.832-34.752-22.208-70.656-45.184-122.496-45.184-3.392 0-6.912 0.128-10.304 0.32-47.488 2.752-69.76 23.040-97.856 48.704-14.848 13.504-30.208 27.52-49.984 39.104l-0.448 0.256c-42.688 24.128-69.184 54.080-70.912 80.192-0.832 12.992 4.928 24.192 17.152 33.408 26.624 19.968 44.48 33.024 56.256 41.664 13.12 9.6 17.088 12.48 20.032 15.296 2.112 1.984 4.352 4.16 6.784 6.592 24.448 23.744 65.344 63.552 128.128 63.552 38.4 0 80.896-14.784 126.144-43.904 21.312-13.888 39.872-20.288 63.36-28.416 16.128-5.568 34.496-11.904 59.008-22.4l0.384-0.192c22.848-9.408 49.92-26.56 48.64-54.912zM652.672 302.208c-4.416 2.24-8.96 4.352-13.76 6.272-22.080 9.472-39.808 15.872-54.528 20.992 8.128 15.872 13.184 35.712 13.632 57.216 0 0 0 0 0 0 1.152 52.352-25.28 94.912-59.008 94.976s-61.952-42.304-63.104-94.656c0 0 0 0 0 0-0.064-1.728-0.064-3.392 0-5.12-20.736 9.536-41.152 16.512-61.184 20.736-0.064 1.984-0.192 3.904-0.256 5.888 0 0 0 0.064 0 0.064-1.92 95.424 56.576 174.4 130.752 176.384s135.808-73.728 137.792-169.088c0 0 0-0.064 0-0.064 0.896-43.136-10.688-82.88-30.4-113.664z" />
<glyph unicode="&#xe9b7;" glyph-name="os-windows1" d="M412.224 448.064c-47.68 24.512-94.080 36.928-137.856 36.928-5.952 0-11.968-0.192-17.92-0.704-55.872-4.608-106.944-19.392-139.776-30.848-8.704-3.2-17.664-6.592-26.816-10.304l-89.792-311.424c61.696 22.848 116.288 33.92 166.272 33.92 80.832 0 139.52-30.208 187.968-61.312 22.976 77.888 78.016 266.112 94.464 322.304-11.968 7.296-24.064 14.592-36.544 21.312zM528.32 368.96l-90.432-314.176c26.816-15.36 117.12-64.064 186.24-64.064 55.808 0 118.272 14.272 190.848 43.776l86.336 301.952c-58.624-18.944-114.88-28.544-167.488-28.544-95.936 0-163.136 31.104-205.504 60.928zM292.8 591.232c77.12-0.768 134.144-30.208 181.44-60.48l92.736 317.312c-19.52 11.2-70.784 39.104-107.84 48.576-24.384 5.696-50.048 8.64-77.184 8.64-51.776-0.96-108.416-13.952-172.864-39.808l-88.448-310.592c64.832 24.448 120.64 36.352 172.096 36.352 0.064 0 0.128 0 0.128 0zM1024 761.856c-58.816-22.848-116.224-34.496-171.008-34.496-91.712 0-159.296 31.808-203.072 62.336l-91.968-318.208c61.76-39.68 128.32-59.904 198.144-59.904 56.96 0 115.968 13.696 175.488 40.704l-0.192 2.24 3.712 0.896 88.96 306.432z" />
<glyph unicode="&#xe9b8;" glyph-name="os-windows2" d="M0.32 448l-0.32 312.064 384 52.16v-364.224zM448 821.504l511.872 74.496v-448h-511.872zM960 384l-0.128-448-511.872 72v376zM384 16.192l-383.68 52.608v315.264h383.68z" />
<glyph unicode="&#xe9b9;" glyph-name="phone1" d="M1017.408 384c8-55.488 13.248-131.392-11.648-160.448-41.152-48.064-301.696-48.064-301.696 48.064 0 48.384 42.88 80.128 1.728 128.192-40.448 47.232-113.024 48-193.728 48.064s-153.216-0.768-193.728-48.064c-41.152-48.064 1.728-79.808 1.728-128.192 0-96.064-260.544-96.064-301.696-48.064-24.896 29.056-19.648 104.96-11.648 160.448 6.144 37.056 21.696 76.992 71.552 128 0 0 0 0 0 0 74.752 69.76 187.84 126.72 429.824 128v0c1.344 0 2.688 0 4.032 0s2.624 0 4.032 0v0c241.984-1.216 355.072-58.24 429.824-128 0 0 0 0 0 0 49.792-51.008 65.408-90.944 71.552-128z" />
<glyph unicode="&#xe9ba;" glyph-name="phone2" d="M821.632-4.064l-140.288 258.048 68.032 34.432 140.288-258.048-68.032-34.432zM753.888-38.336c-26.496-13.952-54.528-25.728-85.216-26.080-35.296-0.576-69.184 12.928-99.52 29.376-87.008 47.488-159.52 121.568-215.36 200.64-32.032 45.184-60.736 93.216-87.456 142.048-26.496 49.088-51.040 99.168-71.424 150.24-35.648 89.248-57.568 188.992-48.576 285.12 3.168 33.472 10.912 68.032 31.456 95.648 17.76 24.128 43.68 39.872 70.72 52.896 6.688 3.296 20.256 9.472 20.256 9.472l139.968-257.344c0 0-14.656-7.392-29.76-26.784-10.368-13.376-19.2-28.096-25.28-43.744-16.096-41.536-14.528-85.792 0.576-127.392 9.28-25.728 21.472-51.296 34.368-76.16 13.888-24.416 28.608-48.512 45.344-70.656 26.816-35.584 63.744-61.888 108.288-72.736 16.736-4.096 34.336-5.408 51.648-4.736 25.088 0.928 39.68 8.352 39.68 8.352l139.904-257.344c0 0-12.992-7.264-19.616-10.784zM316.16 925.856l68.064 34.368 140.256-257.92-68.064-34.496-140.256 258.048z" />
<glyph unicode="&#xe9bb;" glyph-name="phone3" d="M704 320c-64-64-64-128-128-128s-128 64-192 128-128 128-128 192 64 64 128 128-128 256-192 256-192-192-192-192c0-128 131.52-387.52 256-512s384-256 512-256c0 0 192 128 192 192s-192 256-256 192z" />
<glyph unicode="&#xe9bc;" glyph-name="plus1" d="M903.552 332.416h-282.496v-266.944c0-58.976-50.592-106.784-113.024-106.784-62.368 0-112.96 47.808-112.96 106.784v266.944h-282.496c-62.368 0-112.96 47.808-112.96 106.784s50.592 106.784 112.96 106.784h282.496v266.976c0 58.944 50.592 106.752 112.96 106.752 62.432 0 113.024-47.808 113.024-106.752v-266.976h282.496c62.368 0 112.96-47.808 112.96-106.784s-50.592-106.784-112.96-106.784z" />
<glyph unicode="&#xe9bd;" glyph-name="plus2-circle-punch" d="M779.616 367.392h-189.504v-189.504h-146.272v189.504h-189.504v146.272h189.504v189.504h146.272v-189.504h189.504v-146.272zM1024 448c0-282.784-229.216-512-512-512s-512 229.216-512 512c0 282.784 229.216 512 512 512s512-229.216 512-512zM924.608 448c0 228.064-184.608 412.608-412.608 412.608-228.064 0-412.608-184.608-412.608-412.608 0-228.064 184.608-412.608 412.608-412.608 228.064 0 412.608 184.608 412.608 412.608z" />
<glyph unicode="&#xe9be;" glyph-name="plus2" d="M992 576h-352v352c0 17.664-14.336 32-32 32h-192c-17.664 0-32-14.336-32-32v-352h-352c-17.664 0-32-14.336-32-32v-192c0-17.664 14.336-32 32-32h352v-352c0-17.664 14.336-32 32-32h192c17.664 0 32 14.336 32 32v352h352c17.664 0 32 14.336 32 32v192c0 17.664-14.336 32-32 32z" />
<glyph unicode="&#xe9bf;" glyph-name="printer" d="M256 896h512v-128h-512v128zM960 704h-896c-35.2 0-64-28.8-64-64v-320c0-35.2 28.8-64 64-64h192v-256h512v256h192c35.2 0 64 28.8 64 64v320c0 35.2-28.8 64-64 64zM128 512c-35.328 0-64 28.672-64 64s28.672 64 64 64 64-28.672 64-64-28.672-64-64-64zM704 64h-384v320h384v-320z" />
<glyph unicode="&#xe9c0;" glyph-name="refresh" d="M106.016 446.688h-106.016l197.376-203.296 195.328 203.296h-100.288c-0.288 159.072 123.872 289.28 277.92 290.144 154.4 0.96 280.32-127.744 281.216-287.424 1.472-257.824-299.936-386.912-475.904-207.584l-130.784-137.312c292.608-298.24 795.456-84.448 793.024 345.984-1.472 266.144-211.36 480.608-468.704 479.040-256.96-1.568-464.096-217.344-463.2-482.912z" />
<glyph unicode="&#xe9c1;" glyph-name="save" d="M896 960h-896v-1024h1024v896l-128 128zM512 832h128v-256h-128v256zM896 64h-768v768h64v-320h576v320h75.008l52.992-52.992v-715.008z" />
<glyph unicode="&#xe9c2;" glyph-name="search1" d="M1006.624 103.36l-216.864 212.512c41.92 64.96 66.272 141.824 66.272 224.256 0 231.424-192.192 419.52-428.096 419.52-236.16 0-428.128-188.352-428.128-419.52s192.224-419.584 428.128-419.584c79.968 0 154.624 21.664 218.848 58.976l218.624-214.24c93.44-91.808 234.624 46.528 141.184 138.112zM132.64 539.872c0 159.744 132.576 289.664 295.328 289.664s295.552-129.952 295.552-289.664c0-159.776-132.576-289.664-295.552-289.664-163.040 0-295.328 130.176-295.328 289.664z" />
<glyph unicode="&#xe9c3;" glyph-name="search2" d="M1004.16 69.12l-259.2 271.104c37.376 61.184 59.52 135.232 59.52 214.432 0 0.48 0 0.96 0 1.44-9.376 206.176-178.848 369.856-386.56 369.856-213.696 0-386.944-173.248-386.944-386.944s173.248-386.944 386.944-386.944c0 0 0 0 0 0 73.184 0.032 141.6 21.216 199.296 57.792l259.584-273.856zM175.36 556.032c5.824 129.472 112.192 232.256 242.592 232.256 134.112 0 242.816-108.704 242.816-242.816s-108.704-242.816-242.816-242.816c0 0-0.032 0-0.032 0-134.688 3.264-242.624 113.216-242.624 248.384 0 1.76 0.032 3.52 0.064 5.248z" />
<glyph unicode="&#xe9c4;" glyph-name="search3" d="M986.72 151.552l-271.808 271.808c-5.056 5.056-10.752 10.112-16.448 13.92 22.112 47.392 34.752 100.512 34.752 156.128 0 202.272-164.352 366.624-366.624 366.624s-366.624-164.352-366.624-366.624 164.352-366.624 366.624-366.624c55.616 0 108.736 12.64 155.488 34.752 4.416-5.696 8.864-11.392 13.92-16.448l271.808-271.808c24.64-24.64 56.896-37.28 89.12-37.28s64.48 12.64 89.12 37.28c49.952 49.312 49.952 128.96 0.64 178.24zM126.432 593.376c0 132.736 107.456 240.192 240.192 240.192s240.192-107.456 240.192-240.192c0-65.728-26.56-125.792-70.176-169.408l-1.28-1.28c-42.976-42.976-103.040-69.536-168.768-69.536-132.736 0-240.192 107.456-240.192 240.192z" />
<glyph unicode="&#xe9c5;" glyph-name="search4" d="M-0.064 493.888c0-257.312 205.92-465.984 459.84-465.984 95.136 0 183.488 29.216 256.768 79.2l163.104-165.312c0 0 42.848-25.984 102.944 34.624 59.744 60.8 34.080 104.192 34.080 104.192l-165.792 168c43.584 71.136 68.768 155.264 68.768 245.28 0 257.28-205.984 465.984-459.872 465.984s-459.84-208.704-459.84-465.984zM163.296 493.888c0 162.56 136.032 300.416 296.48 300.416s296.48-137.856 296.48-300.416c0-162.624-136-300.48-296.48-300.48-160.416 0-296.48 137.856-296.48 300.48z" />
<glyph unicode="&#xe9c6;" glyph-name="search5" d="M992.256 88.576l-242.56 206.272c-25.088 22.592-51.904 32.896-73.536 31.936 57.28 67.072 91.84 154.048 91.84 249.152 0 212.096-171.904 384-384 384s-384-171.904-384-384 171.904-384 384-384c95.104 0 182.080 34.56 249.152 91.84-1.024-21.632 9.344-48.448 31.936-73.536l206.272-242.56c35.328-39.232 92.992-42.56 128.192-7.36s31.872 92.928-7.36 128.192zM384 320c-141.376 0-256 114.624-256 256s114.624 256 256 256 256-114.624 256-256-114.624-256-256-256z" />
<glyph unicode="&#xe9c7;" glyph-name="shipping-box" d="M458.88 960.128l-410.816-235.424v-491.2l515.328-297.824 410.080 236.96v491.2l-514.56 296.288zM865.056 639.872l-112.48-61.824-400.032 234.88 106.272 60.896 406.272-233.92zM523.296 45.216l-400.864 231.264v363.264l400.864-230.304v-364.224zM562.208 473.408l-400.192 230.336 115.68 66.304 398.496-233.952-113.984-62.688zM898.336 215.616l-299.776-173.216v365.6l299.776 164.768v-357.152zM674.176 162.4l-0.256 73.12 14.688 8.512v-73.28l-14.432-8.352zM829.664 252.256l-12.128-7.008v73.28l14.432 8.352v-73.28l-2.304-1.344zM771.872 218.848l-14.432-8.352v73.28l14.432 8.352v-73.28zM796.416 233.056l-14.688-8.48v73.28l14.688 8.512v-73.28zM747.744 204.896l-14.464-8.352v73.28l14.464 8.352v-73.28zM713.184 184.928l-14.432-8.352v73.28l14.432 8.352v-73.28z" />
<glyph unicode="&#xe9c8;" glyph-name="shipping-truck1-left" d="M993.952 804.256c-222.112 0-444.224 0-666.368 0-15.104 0-27.68-12.384-27.68-27.232 0-34.592 0-69.152 0-103.744 0-1.824 0-3.616 0-5.44-52.352 0-104.736 0-157.088 0-10.496 0-17.856-4.704-22.208-11.328-0.576-0.704-1.184-1.376-1.728-2.144-36.864-51.168-73.728-102.304-110.624-153.408-1.76-1.824-3.264-3.904-4.416-6.336-4.288-6.912-4.672-13.632-2.56-19.456 0-70.72 0-141.44 0-212.16 0-8.448 3.232-14.848 8.096-19.232 4.448-4.8 10.976-8 19.584-8 11.392 0 22.784 0 34.176 0 19.68 47.040 66.816 80.256 121.664 80.256s101.984-33.216 121.664-80.256c7.040 0 14.048 0 21.088 0 85.216 0 170.4 0 255.616 0 11.648 28.64 33.184 52.416 60.544 67.104 18.976 11.232 40.992 17.408 64.128 17.408 23.2 0 45.248-6.176 64.256-17.44 27.296-14.688 48.8-38.432 60.416-67.040 53.824 0 107.616 0 161.44 0 8.608 0 15.168 3.168 19.616 8 4.864 4.384 8.096 10.784 8.096 19.232 0 171.328 0 342.72 0 514.048 0 14.816-12.608 27.232-27.68 27.232zM299.872 328.096c-32.448 26.144-72.704 40.352-115.232 40.352-48.48 0-94.048-18.624-128-51.68 0 46.272 0 92.512 0 138.784 81.088 0 162.144 0 243.232 0 0-42.496 0-84.992 0-127.456zM299.872 509.952c-72.48 0-144.96 0-217.472 0 24.864 34.496 49.728 68.96 74.56 103.456 47.648 0 95.264 0 142.88 0 0-34.464 0-68.96 0-103.456zM966.24 290.176c-35.008 0-69.952 0-104.96 0-33.024 52.928-90.304 84.512-153.44 84.512s-120.448-31.584-153.472-84.512c-66.368 0-132.736 0-199.136 0 0 127.68 0 255.392 0 383.104 0 25.504 0 51.008 0 76.544 203.648 0 407.296 0 610.976 0 0-153.216 0-306.432 0-459.648zM184.8 281.728c-53.28 0-96.608-42.592-96.608-94.912s43.328-94.912 96.608-94.912c53.28 0 96.608 42.592 96.608 94.912s-43.328 94.912-96.608 94.912zM184.8 146.336c-22.72 0-41.216 18.176-41.216 40.48s18.464 40.48 41.216 40.48c22.72 0 41.216-18.176 41.216-40.48s-18.464-40.48-41.216-40.48zM707.84 281.984c-53.28 0-96.608-42.592-96.608-94.912s43.328-94.912 96.608-94.912 96.608 42.592 96.608 94.912c0 52.32-43.328 94.912-96.608 94.912zM707.84 146.592c-22.72 0-41.216 18.176-41.216 40.48s18.464 40.48 41.216 40.48c22.72 0 41.216-18.144 41.216-40.48s-18.496-40.48-41.216-40.48z" />
<glyph unicode="&#xe9c9;" glyph-name="shipping-truck1-right" d="M30.048 804.256c222.112 0 444.224 0 666.368 0 15.104 0 27.68-12.384 27.68-27.232 0-34.592 0-69.152 0-103.744 0-1.824 0-3.616 0-5.44 52.352 0 104.736 0 157.088 0 10.496 0 17.856-4.704 22.208-11.328 0.576-0.704 1.184-1.376 1.728-2.144 36.864-51.168 73.728-102.304 110.624-153.408 1.76-1.824 3.264-3.904 4.416-6.336 4.288-6.912 4.672-13.632 2.56-19.456 0-70.72 0-141.44 0-212.16 0-8.448-3.232-14.848-8.096-19.232-4.448-4.8-10.976-8-19.584-8-11.392 0-22.784 0-34.176 0-19.68 47.040-66.816 80.256-121.664 80.256s-101.984-33.216-121.664-80.256c-7.040 0-14.048 0-21.088 0-85.216 0-170.4 0-255.616 0-11.648 28.64-33.184 52.416-60.544 67.104-18.976 11.232-40.992 17.408-64.128 17.408-23.2 0-45.248-6.176-64.256-17.44-27.296-14.688-48.8-38.432-60.416-67.040-53.824 0-107.616 0-161.44 0-8.608 0-15.168 3.168-19.616 8-4.864 4.384-8.096 10.784-8.096 19.232 0 171.328 0 342.72 0 514.048 0 14.816 12.608 27.232 27.68 27.232zM724.128 328.096c32.448 26.144 72.704 40.352 115.232 40.352 48.48 0 94.048-18.624 128-51.68 0 46.272 0 92.512 0 138.784-81.088 0-162.144 0-243.232 0 0-42.496 0-84.992 0-127.456zM724.128 509.952c72.48 0 144.96 0 217.472 0-24.864 34.496-49.728 68.96-74.56 103.456-47.648 0-95.264 0-142.88 0 0-34.464 0-68.96 0-103.456zM57.76 290.176c35.008 0 69.952 0 104.96 0 33.024 52.928 90.304 84.512 153.44 84.512s120.448-31.584 153.472-84.512c66.368 0 132.736 0 199.136 0 0 127.68 0 255.392 0 383.104 0 25.504 0 51.008 0 76.544-203.648 0-407.296 0-610.976 0 0-153.216 0-306.432 0-459.648zM839.2 281.728c53.28 0 96.608-42.592 96.608-94.912s-43.328-94.912-96.608-94.912c-53.28 0-96.608 42.592-96.608 94.912s43.328 94.912 96.608 94.912zM839.2 146.336c22.72 0 41.216 18.176 41.216 40.48s-18.464 40.48-41.216 40.48c-22.72 0-41.216-18.176-41.216-40.48s18.464-40.48 41.216-40.48zM316.16 281.984c53.28 0 96.608-42.592 96.608-94.912s-43.328-94.912-96.608-94.912-96.608 42.592-96.608 94.912c0 52.32 43.328 94.912 96.608 94.912zM316.16 146.592c22.72 0 41.216 18.176 41.216 40.48s-18.464 40.48-41.216 40.48c-22.72 0-41.216-18.144-41.216-40.48s18.496-40.48 41.216-40.48z" />
<glyph unicode="&#xe9ca;" glyph-name="shipping-truck2-left" d="M1024 839.936v-627.072c0-0.256 0-0.544 0-0.832 0-5.536-0.896-10.816-2.528-15.776-0.288-2.72-3.456-7.712-7.904-11.104-3.84-2.848-7.2-5.216-9.952-7.072-3.552-2.016-8.608-3.488-14.048-3.68l-13.504-1.216c-2.432 0-7.52 0-15.264 0l-13.44 0.288c0.032-0.768 0.032-1.664 0.032-2.56 0-42.304-17.184-80.608-44.96-108.288-27.456-28.352-65.888-45.952-108.416-45.952s-80.928 17.6-108.352 45.888c-27.776 27.744-44.96 66.016-44.96 108.32 0 0.896 0 1.792 0.032 2.688l-229.952-0.128c0.032-0.768 0.032-1.728 0.032-2.656 0-42.272-17.152-80.512-44.928-108.192-27.456-28.352-65.888-45.952-108.416-45.952s-80.928 17.6-108.352 45.888c-27.776 27.712-44.96 65.952-44.96 108.256 0 0.96 0 1.952 0.032 2.944l-38.304-0.128-13.504-0.288c-7.776 0-12.896 0-15.232 0l-13.504 1.216c-4.64 0.064-9.76 1.408-14.24 3.776-2.592 1.76-5.536 4.096-9.632 6.912-2.528 1.28-6.272 5.888-8.064 11.36-1.6 4.768-2.464 10.080-2.464 15.584 0 0.256 0 0.48 0 0.704 0 0.032 0 0.128 0 0.224 0 10.688 4.384 20.352 11.488 27.264 6.688 7.072 16.128 11.52 26.592 11.52 0.128 0 0.256 0 0.384 0l-0.032 196.096c0 3.296 0 10.4 0 21.44s0 18.816 0 22.976 0.704 11.52 1.472 21.152c-0.064 5.024 1.44 14.464 4.096 23.36-3.648-8.512 1.152 5.792 8.448 18.528-3.904-4.896 3.36 7.776 13.216 17.856l118.24 121.44c15.488 15.264 39.008 26.24 65.056 27.584h95.904v117.568c0 0.096 0 0.192 0 0.256 0 10.656 4.384 20.352 11.488 27.232 6.688 7.072 16.128 11.52 26.592 11.52 0.128 0 0.256 0 0.384 0h613.088c0.096 0 0.256 0 0.352 0 10.464 0 19.872-4.416 26.528-11.488 7.072-6.912 11.392-16.544 11.392-27.2 0-0.128 0-0.256 0-0.384zM870.656 173.664c0 0.224 0 0.48 0 0.768 0 21.248-8.672 40.48-22.72 54.336-13.568 14.368-32.672 23.296-53.92 23.296s-40.352-8.928-53.888-23.232c-14.080-14.176-22.72-33.632-22.72-55.136s8.672-40.96 22.688-55.104c13.536-14.336 32.672-23.296 53.92-23.296s40.352 8.928 53.888 23.232c14.080 13.92 22.752 33.12 22.752 54.368 0 0.256 0 0.544 0 0.8zM104.192 487.2h229.952v156.768h-94.624c-0.032 0-0.096 0-0.096 0-5.184 0-9.824-2.208-13.088-5.728l-116.768-119.392c-3.328-3.36-5.344-7.968-5.344-13.088 0-0.096 0-0.192 0-0.256v-18.368zM334.144 173.664c0 0.128 0 0.288 0 0.416 0 21.408-8.8 40.736-22.976 54.624-13.568 14.368-32.672 23.296-53.92 23.296s-40.352-8.928-53.856-23.232c-14.080-14.144-22.784-33.632-22.784-55.136s8.704-40.992 22.784-55.104c13.536-14.336 32.672-23.264 53.888-23.264s40.352 8.928 53.856 23.232c14.24 13.92 23.040 33.28 23.040 54.688 0 0.16 0 0.32 0 0.48z" />
<glyph unicode="&#xe9cb;" glyph-name="shipping-truck2-right" d="M0 839.936v-627.072c0-0.256 0-0.544 0-0.832 0-5.536 0.896-10.816 2.528-15.776 0.288-2.72 3.456-7.712 7.904-11.104 3.84-2.848 7.2-5.216 9.952-7.072 3.552-2.016 8.608-3.488 14.048-3.68l13.504-1.216c2.432 0 7.52 0 15.264 0l13.44 0.288c-0.032-0.768-0.032-1.664-0.032-2.56 0-42.304 17.184-80.608 44.96-108.288 27.456-28.352 65.888-45.952 108.416-45.952s80.928 17.6 108.352 45.888c27.776 27.744 44.96 66.016 44.96 108.32 0 0.896 0 1.792-0.032 2.688l229.952-0.128c-0.032-0.768-0.032-1.728-0.032-2.656 0-42.272 17.152-80.512 44.928-108.192 27.456-28.352 65.888-45.952 108.416-45.952s80.928 17.6 108.352 45.888c27.776 27.712 44.96 65.952 44.96 108.256 0 0.96 0 1.952-0.032 2.944l38.304-0.128 13.504-0.288c7.776 0 12.896 0 15.232 0l13.504 1.216c4.64 0.064 9.76 1.408 14.24 3.776 2.592 1.76 5.536 4.096 9.632 6.912 2.528 1.28 6.272 5.888 8.064 11.36 1.6 4.768 2.464 10.080 2.464 15.584 0 0.256 0 0.48 0 0.704 0 0.032 0 0.128 0 0.224 0 10.688-4.384 20.352-11.488 27.264-6.688 7.072-16.128 11.52-26.592 11.52-0.128 0-0.256 0-0.384 0l0.032 196.096c0 3.296 0 10.4 0 21.44s0 18.816 0 22.976-0.704 11.52-1.472 21.152c0.064 5.024-1.44 14.464-4.096 23.36 3.648-8.512-1.152 5.792-8.448 18.528 3.904-4.896-3.36 7.776-13.216 17.856l-118.24 121.44c-15.488 15.264-39.008 26.24-65.056 27.584h-95.904v117.568c0 0.096 0 0.192 0 0.256 0 10.656-4.384 20.352-11.488 27.232-6.688 7.072-16.128 11.52-26.592 11.52-0.128 0-0.256 0-0.384 0h-613.088c-0.096 0-0.256 0-0.352 0-10.464 0-19.872-4.416-26.528-11.488-7.072-6.912-11.392-16.544-11.392-27.2 0-0.128 0-0.256 0-0.384zM153.344 173.664c0 0.224 0 0.48 0 0.768 0 21.248 8.672 40.48 22.72 54.336 13.568 14.368 32.672 23.296 53.92 23.296s40.352-8.928 53.888-23.232c14.080-14.176 22.72-33.632 22.72-55.136s-8.672-40.96-22.688-55.104c-13.536-14.336-32.672-23.296-53.92-23.296s-40.352 8.928-53.888 23.232c-14.080 13.92-22.752 33.12-22.752 54.368 0 0.256 0 0.544 0 0.8zM919.808 487.2h-229.952v156.768h94.624c0.032 0 0.096 0 0.096 0 5.184 0 9.824-2.208 13.088-5.728l116.768-119.392c3.328-3.36 5.344-7.968 5.344-13.088 0-0.096 0-0.192 0-0.256v-18.368zM689.856 173.664c0 0.128 0 0.288 0 0.416 0 21.408 8.8 40.736 22.976 54.624 13.568 14.368 32.672 23.296 53.92 23.296s40.352-8.928 53.856-23.232c14.080-14.144 22.784-33.632 22.784-55.136s-8.704-40.992-22.784-55.104c-13.536-14.336-32.672-23.264-53.888-23.264s-40.352 8.928-53.856 23.232c-14.24 13.92-23.040 33.28-23.040 54.688 0 0.16 0 0.32 0 0.48z" />
<glyph unicode="&#xe9cc;" glyph-name="shipping-truck3-left" d="M0 384l128 256h192v128c0 35.2 28.8 64 64 64h576c35.2 0 64-28.8 64-64v-512l-64-64h-81.152c10.88-18.816 17.152-40.704 17.152-64 0-70.72-57.28-128-128-128s-128 57.28-128 128c0 23.296 6.272 45.184 17.152 64h-354.304c10.88-18.816 17.152-40.704 17.152-64 0-70.72-57.28-128-128-128s-128 57.28-128 128c0 23.296 6.272 45.184 17.152 64h-81.152v192zM320 384v192h-132.672l-96-192h228.672z" />
<glyph unicode="&#xe9cd;" glyph-name="shipping-truck3-right" d="M1024 384l-128 256h-192v128c0 35.2-28.8 64-64 64h-576c-35.2 0-64-28.8-64-64v-512l64-64h81.152c-10.88-18.816-17.152-40.704-17.152-64 0-70.72 57.28-128 128-128s128 57.28 128 128c0 23.296-6.272 45.184-17.152 64h354.304c-10.88-18.816-17.152-40.704-17.152-64 0-70.72 57.28-128 128-128s128 57.28 128 128c0 23.296-6.272 45.184-17.152 64h81.152v192zM704 384v192h132.672l96-192h-228.672z" />
<glyph unicode="&#xe9ce;" glyph-name="shrink1" d="M576 512h416l-160 160 192 192-96 96-192-192-160 160zM576 384v-416l160 160 192-192 96 96-192 192 160 160zM448 384h-416l160-160-192-192 96-96 192 192 160-160zM448 512v416l-160-160-192 192-96-96 192-192-160-160z" />
<glyph unicode="&#xe9cf;" glyph-name="shrink2" d="M448 384v-416l-160 160-192-192-96 96 192 192-160 160zM1024 864l-192-192 160-160h-416v416l160-160 192 192z" />
<glyph unicode="&#xe9d0;" glyph-name="social-amazon" d="M925.632 74.816c-112.192-82.816-274.624-126.784-414.592-126.784-196.224 0-372.8 72.384-506.368 193.216-10.432 9.408-1.216 22.4 11.392 14.976 144.192-84.032 322.624-134.4 506.816-134.4 124.224 0 260.8 25.792 386.624 79.232 18.816 8 34.816-12.608 16.192-26.176zM972.224 128c-14.4 18.368-94.784 8.768-131.008 4.416-11.008-1.216-12.608 8.192-2.816 15.232 64.192 44.992 169.408 32 181.632 17.024 12.416-15.232-3.2-120.576-63.424-171.008-9.216-7.808-17.984-3.584-14.016 6.592 13.824 33.792 44.032 109.376 29.632 127.808zM707.392 202.368l0.192-0.192c24.768 21.824 69.376 60.8 94.592 81.792 9.984 8 8.192 21.376 0.384 32.576-22.592 31.232-46.592 56.576-46.592 114.176v192c0 81.408 5.632 156.032-54.208 212.032-47.232 45.184-125.632 61.184-185.6 61.184-117.184 0-248-43.776-275.392-188.608-3.008-15.424 8.384-23.616 18.368-25.792l119.424-12.992c11.2 0.576 19.2 11.584 21.376 22.784 10.176 49.792 52.032 73.984 99.008 73.984 25.408 0 54.208-9.216 69.184-32 17.216-25.408 14.976-60.032 14.976-89.408v-16c-71.424-8-164.8-13.184-231.616-42.624-77.184-33.408-131.392-101.376-131.392-201.408 0-128 80.576-192 184.384-192 87.616 0 135.424 20.608 203.008 89.792 22.4-32.384 29.632-48.192 70.592-82.176 9.408-4.992 20.992-4.608 29.184 2.816zM583.232 502.784c0-48 1.216-88-22.976-130.624-19.584-34.816-50.624-56-85.184-56-47.168 0-74.816 36.032-74.816 89.216 0 105.024 94.208 124.032 183.232 124.032v-26.624z" />
</font>
</defs>
</svg>
